<svg width="210" height="108" viewBox="0 0 210 108" fill="none" xmlns="http://www.w3.org/2000/svg">
<path d="M1.25781 20V10.0059H3.37695V18.25H7.43066V20H1.25781ZM12.1611 12.2139C12.8675 12.2139 13.4759 12.3506 13.9863 12.624C14.4967 12.8929 14.891 13.2848 15.1689 13.7998C15.4469 14.3148 15.5859 14.9437 15.5859 15.6865V16.6982H10.6572C10.68 17.2861 10.8555 17.7487 11.1836 18.0859C11.5163 18.4186 11.9766 18.585 12.5645 18.585C13.0521 18.585 13.4987 18.5348 13.9043 18.4346C14.3099 18.3343 14.7269 18.1839 15.1553 17.9834V19.5967C14.777 19.7835 14.3805 19.9202 13.9658 20.0068C13.5557 20.0934 13.0566 20.1367 12.4688 20.1367C11.7031 20.1367 11.0241 19.9954 10.4316 19.7129C9.84375 19.4303 9.38118 18.9997 9.04395 18.4209C8.71126 17.8421 8.54492 17.113 8.54492 16.2334C8.54492 15.3402 8.69531 14.5973 8.99609 14.0049C9.30143 13.4079 9.72526 12.9613 10.2676 12.665C10.8099 12.3643 11.4411 12.2139 12.1611 12.2139ZM12.1748 13.6973C11.7692 13.6973 11.432 13.8271 11.1631 14.0869C10.8988 14.3467 10.7461 14.7546 10.7051 15.3105H13.6309C13.6263 15.0007 13.5693 14.7249 13.46 14.4834C13.3551 14.2419 13.1956 14.0505 12.9814 13.9092C12.7718 13.7679 12.5029 13.6973 12.1748 13.6973ZM20.4121 12.2002C21.4375 12.2002 22.2236 12.4235 22.7705 12.8701C23.3174 13.3167 23.5908 13.9958 23.5908 14.9072V20H22.1348L21.7314 18.9609H21.6768C21.458 19.2344 21.2347 19.4577 21.0068 19.6309C20.779 19.804 20.5169 19.9316 20.2207 20.0137C19.9245 20.0957 19.5645 20.1367 19.1406 20.1367C18.6895 20.1367 18.2839 20.0501 17.9238 19.877C17.5684 19.7038 17.2881 19.4395 17.083 19.084C16.8779 18.724 16.7754 18.2682 16.7754 17.7168C16.7754 16.9056 17.0602 16.3086 17.6299 15.9258C18.1995 15.5384 19.054 15.3242 20.1934 15.2832L21.5195 15.2422V14.9072C21.5195 14.5062 21.4147 14.2122 21.2051 14.0254C20.9954 13.8385 20.7038 13.7451 20.3301 13.7451C19.9609 13.7451 19.5986 13.7975 19.2432 13.9023C18.8877 14.0072 18.5322 14.1393 18.1768 14.2988L17.4863 12.8906C17.8919 12.6764 18.3454 12.5078 18.8467 12.3848C19.3525 12.2617 19.8743 12.2002 20.4121 12.2002ZM21.5195 16.459L20.7129 16.4863C20.0384 16.5046 19.569 16.6253 19.3047 16.8486C19.0449 17.0719 18.915 17.3659 18.915 17.7305C18.915 18.0495 19.0085 18.2773 19.1953 18.4141C19.3822 18.5462 19.626 18.6123 19.9268 18.6123C20.3734 18.6123 20.7493 18.4801 21.0547 18.2158C21.3646 17.9515 21.5195 17.5755 21.5195 17.0879V16.459ZM30.0098 12.2139C30.1146 12.2139 30.2354 12.2207 30.3721 12.2344C30.5133 12.2435 30.6273 12.2572 30.7139 12.2754L30.5566 14.2305C30.4883 14.2077 30.3903 14.1917 30.2627 14.1826C30.1396 14.1689 30.0326 14.1621 29.9414 14.1621C29.6725 14.1621 29.4105 14.1963 29.1553 14.2646C28.9046 14.333 28.679 14.4447 28.4785 14.5996C28.278 14.75 28.1185 14.9505 28 15.2012C27.8861 15.4473 27.8291 15.7503 27.8291 16.1104V20H25.7441V12.3574H27.3232L27.6309 13.6426H27.7334C27.8838 13.3828 28.0706 13.1458 28.2939 12.9316C28.5218 12.7129 28.7793 12.5397 29.0664 12.4121C29.3581 12.2799 29.6725 12.2139 30.0098 12.2139ZM36.4424 12.2139C37.2581 12.2139 37.9144 12.4372 38.4111 12.8838C38.9079 13.3258 39.1562 14.0368 39.1562 15.0166V20H37.0713V15.5361C37.0713 14.9893 36.971 14.5768 36.7705 14.2988C36.5745 14.0208 36.2646 13.8818 35.8408 13.8818C35.2028 13.8818 34.7676 14.0983 34.5352 14.5312C34.3027 14.9642 34.1865 15.5885 34.1865 16.4043V20H32.1016V12.3574H33.6943L33.9746 13.335H34.0908C34.2549 13.0706 34.4577 12.8564 34.6992 12.6924C34.9453 12.5283 35.2165 12.4076 35.5127 12.3301C35.8135 12.2526 36.1234 12.2139 36.4424 12.2139ZM49.2803 12.2139C50.096 12.2139 50.7523 12.4372 51.249 12.8838C51.7458 13.3258 51.9941 14.0368 51.9941 15.0166V20H49.9092V15.5361C49.9092 14.9893 49.8089 14.5768 49.6084 14.2988C49.4124 14.0208 49.1025 13.8818 48.6787 13.8818C48.0407 13.8818 47.6055 14.0983 47.373 14.5312C47.1406 14.9642 47.0244 15.5885 47.0244 16.4043V20H44.9395V12.3574H46.5322L46.8125 13.335H46.9287C47.0928 13.0706 47.2956 12.8564 47.5371 12.6924C47.7832 12.5283 48.0544 12.4076 48.3506 12.3301C48.6514 12.2526 48.9613 12.2139 49.2803 12.2139ZM57.292 12.2139C57.9984 12.2139 58.6068 12.3506 59.1172 12.624C59.6276 12.8929 60.0218 13.2848 60.2998 13.7998C60.5778 14.3148 60.7168 14.9437 60.7168 15.6865V16.6982H55.7881C55.8109 17.2861 55.9863 17.7487 56.3145 18.0859C56.6471 18.4186 57.1074 18.585 57.6953 18.585C58.1829 18.585 58.6296 18.5348 59.0352 18.4346C59.4408 18.3343 59.8577 18.1839 60.2861 17.9834V19.5967C59.9079 19.7835 59.5114 19.9202 59.0967 20.0068C58.6865 20.0934 58.1875 20.1367 57.5996 20.1367C56.834 20.1367 56.1549 19.9954 55.5625 19.7129C54.9746 19.4303 54.512 18.9997 54.1748 18.4209C53.8421 17.8421 53.6758 17.113 53.6758 16.2334C53.6758 15.3402 53.8262 14.5973 54.127 14.0049C54.4323 13.4079 54.8561 12.9613 55.3984 12.665C55.9408 12.3643 56.5719 12.2139 57.292 12.2139ZM57.3057 13.6973C56.9001 13.6973 56.5628 13.8271 56.2939 14.0869C56.0296 14.3467 55.877 14.7546 55.8359 15.3105H58.7617C58.7572 15.0007 58.7002 14.7249 58.5908 14.4834C58.486 14.2419 58.3265 14.0505 58.1123 13.9092C57.9027 13.7679 57.6338 13.6973 57.3057 13.6973ZM68.6943 20L68.1064 17.3271C68.0745 17.1676 68.0221 16.9329 67.9492 16.623C67.8763 16.3086 67.7965 15.9736 67.71 15.6182C67.6279 15.2581 67.5505 14.9255 67.4775 14.6201C67.4092 14.3148 67.359 14.0915 67.3271 13.9502H67.2656C67.2337 14.0915 67.1836 14.3148 67.1152 14.6201C67.0469 14.9255 66.9694 15.2581 66.8828 15.6182C66.8008 15.9782 66.7233 16.3177 66.6504 16.6367C66.5775 16.9512 66.5228 17.1904 66.4863 17.3545L65.8711 20H63.6289L61.4551 12.3574H63.5332L64.415 15.7412C64.4743 15.9782 64.5312 16.2607 64.5859 16.5889C64.6406 16.9124 64.6885 17.2269 64.7295 17.5322C64.7751 17.833 64.8092 18.0723 64.832 18.25H64.8867C64.8958 18.1178 64.9141 17.9424 64.9414 17.7236C64.9733 17.5049 65.0075 17.2793 65.0439 17.0469C65.085 16.8099 65.1214 16.598 65.1533 16.4111C65.1898 16.2197 65.2171 16.0898 65.2354 16.0215L66.1787 12.3574H68.4756L69.3711 16.0215C69.403 16.1536 69.444 16.3633 69.4941 16.6504C69.5488 16.9375 69.5967 17.2337 69.6377 17.5391C69.6787 17.8398 69.7015 18.0768 69.7061 18.25H69.7607C69.779 18.0951 69.8109 17.8649 69.8564 17.5596C69.902 17.2542 69.9544 16.9352 70.0137 16.6025C70.0775 16.2653 70.1413 15.9782 70.2051 15.7412L71.1211 12.3574H73.165L70.9639 20H68.6943ZM83.3711 17.7305C83.3711 18.25 83.248 18.6898 83.002 19.0498C82.7604 19.4053 82.3981 19.6764 81.915 19.8633C81.432 20.0456 80.8304 20.1367 80.1104 20.1367C79.5771 20.1367 79.1191 20.1025 78.7363 20.0342C78.3581 19.9658 77.9753 19.8519 77.5879 19.6924V17.9697C78.0026 18.1566 78.4469 18.3115 78.9209 18.4346C79.3994 18.5531 79.8187 18.6123 80.1787 18.6123C80.5843 18.6123 80.8737 18.5531 81.0469 18.4346C81.2246 18.3115 81.3135 18.152 81.3135 17.9561C81.3135 17.8285 81.277 17.7145 81.2041 17.6143C81.1357 17.5094 80.9854 17.3932 80.7529 17.2656C80.5205 17.1335 80.1559 16.9626 79.6592 16.7529C79.1807 16.5524 78.7865 16.3496 78.4766 16.1445C78.1712 15.9395 77.9434 15.6979 77.793 15.4199C77.6471 15.1374 77.5742 14.7796 77.5742 14.3467C77.5742 13.6403 77.8477 13.1094 78.3945 12.7539C78.946 12.3939 79.682 12.2139 80.6025 12.2139C81.0765 12.2139 81.5277 12.2617 81.9561 12.3574C82.389 12.4531 82.8333 12.6058 83.2891 12.8154L82.6602 14.3193C82.2819 14.1553 81.9242 14.0208 81.5869 13.916C81.2542 13.8112 80.9147 13.7588 80.5684 13.7588C80.263 13.7588 80.0329 13.7998 79.8779 13.8818C79.723 13.9639 79.6455 14.0892 79.6455 14.2578C79.6455 14.3809 79.6842 14.4902 79.7617 14.5859C79.8438 14.6816 79.9987 14.7887 80.2266 14.9072C80.459 15.0212 80.7985 15.1693 81.2451 15.3516C81.6781 15.5293 82.054 15.7161 82.373 15.9121C82.6921 16.1035 82.9382 16.3428 83.1113 16.6299C83.2845 16.9124 83.3711 17.2793 83.3711 17.7305ZM87.083 9.36328V14.1211C87.083 14.4082 87.0716 14.6953 87.0488 14.9824C87.026 15.2695 87.001 15.5566 86.9736 15.8438H87.001C87.1423 15.6432 87.2858 15.445 87.4316 15.249C87.582 15.0531 87.7415 14.8639 87.9102 14.6816L90.0498 12.3574H92.4014L89.3662 15.6729L92.5859 20H90.1797L87.9785 16.9033L87.083 17.6211V20H84.998V9.36328H87.083ZM95.7646 12.3574V20H93.6797V12.3574H95.7646ZM94.7256 9.36328C95.0355 9.36328 95.3021 9.4362 95.5254 9.58203C95.7487 9.72331 95.8604 9.98991 95.8604 10.3818C95.8604 10.7692 95.7487 11.0381 95.5254 11.1885C95.3021 11.3343 95.0355 11.4072 94.7256 11.4072C94.4111 11.4072 94.1423 11.3343 93.9189 11.1885C93.7002 11.0381 93.5908 10.7692 93.5908 10.3818C93.5908 9.98991 93.7002 9.72331 93.9189 9.58203C94.1423 9.4362 94.4111 9.36328 94.7256 9.36328ZM100.044 20H97.959V9.36328H100.044V20ZM104.323 20H102.238V9.36328H104.323V20ZM111.85 17.7305C111.85 18.25 111.727 18.6898 111.48 19.0498C111.239 19.4053 110.877 19.6764 110.394 19.8633C109.91 20.0456 109.309 20.1367 108.589 20.1367C108.056 20.1367 107.598 20.1025 107.215 20.0342C106.837 19.9658 106.454 19.8519 106.066 19.6924V17.9697C106.481 18.1566 106.925 18.3115 107.399 18.4346C107.878 18.5531 108.297 18.6123 108.657 18.6123C109.063 18.6123 109.352 18.5531 109.525 18.4346C109.703 18.3115 109.792 18.152 109.792 17.9561C109.792 17.8285 109.756 17.7145 109.683 17.6143C109.614 17.5094 109.464 17.3932 109.231 17.2656C108.999 17.1335 108.634 16.9626 108.138 16.7529C107.659 16.5524 107.265 16.3496 106.955 16.1445C106.65 15.9395 106.422 15.6979 106.271 15.4199C106.126 15.1374 106.053 14.7796 106.053 14.3467C106.053 13.6403 106.326 13.1094 106.873 12.7539C107.424 12.3939 108.16 12.2139 109.081 12.2139C109.555 12.2139 110.006 12.2617 110.435 12.3574C110.868 12.4531 111.312 12.6058 111.768 12.8154L111.139 14.3193C110.76 14.1553 110.403 14.0208 110.065 13.916C109.733 13.8112 109.393 13.7588 109.047 13.7588C108.742 13.7588 108.511 13.7998 108.356 13.8818C108.201 13.9639 108.124 14.0892 108.124 14.2578C108.124 14.3809 108.163 14.4902 108.24 14.5859C108.322 14.6816 108.477 14.7887 108.705 14.9072C108.938 15.0212 109.277 15.1693 109.724 15.3516C110.157 15.5293 110.533 15.7161 110.852 15.9121C111.171 16.1035 111.417 16.3428 111.59 16.6299C111.763 16.9124 111.85 17.2793 111.85 17.7305ZM123.396 20L122.808 17.3271C122.776 17.1676 122.723 16.9329 122.65 16.623C122.577 16.3086 122.498 15.9736 122.411 15.6182C122.329 15.2581 122.252 14.9255 122.179 14.6201C122.11 14.3148 122.06 14.0915 122.028 13.9502H121.967C121.935 14.0915 121.885 14.3148 121.816 14.6201C121.748 14.9255 121.671 15.2581 121.584 15.6182C121.502 15.9782 121.424 16.3177 121.352 16.6367C121.279 16.9512 121.224 17.1904 121.188 17.3545L120.572 20H118.33L116.156 12.3574H118.234L119.116 15.7412C119.175 15.9782 119.232 16.2607 119.287 16.5889C119.342 16.9124 119.39 17.2269 119.431 17.5322C119.476 17.833 119.51 18.0723 119.533 18.25H119.588C119.597 18.1178 119.615 17.9424 119.643 17.7236C119.674 17.5049 119.709 17.2793 119.745 17.0469C119.786 16.8099 119.823 16.598 119.854 16.4111C119.891 16.2197 119.918 16.0898 119.937 16.0215L120.88 12.3574H123.177L124.072 16.0215C124.104 16.1536 124.145 16.3633 124.195 16.6504C124.25 16.9375 124.298 17.2337 124.339 17.5391C124.38 17.8398 124.403 18.0768 124.407 18.25H124.462C124.48 18.0951 124.512 17.8649 124.558 17.5596C124.603 17.2542 124.656 16.9352 124.715 16.6025C124.779 16.2653 124.842 15.9782 124.906 15.7412L125.822 12.3574H127.866L125.665 20H123.396ZM131.188 9.36328V11.5303C131.188 11.9085 131.175 12.2686 131.147 12.6104C131.125 12.9521 131.106 13.1937 131.093 13.335H131.202C131.366 13.0706 131.56 12.8564 131.783 12.6924C132.011 12.5283 132.262 12.4076 132.535 12.3301C132.809 12.2526 133.103 12.2139 133.417 12.2139C133.968 12.2139 134.449 12.3118 134.859 12.5078C135.27 12.6992 135.589 13.0023 135.816 13.417C136.044 13.8271 136.158 14.3604 136.158 15.0166V20H134.073V15.5361C134.073 14.9893 133.973 14.5768 133.772 14.2988C133.572 14.0208 133.262 13.8818 132.843 13.8818C132.424 13.8818 132.093 13.9798 131.852 14.1758C131.61 14.3672 131.439 14.652 131.339 15.0303C131.239 15.404 131.188 15.862 131.188 16.4043V20H129.104V9.36328H131.188ZM141.456 12.2139C142.162 12.2139 142.771 12.3506 143.281 12.624C143.792 12.8929 144.186 13.2848 144.464 13.7998C144.742 14.3148 144.881 14.9437 144.881 15.6865V16.6982H139.952C139.975 17.2861 140.15 17.7487 140.479 18.0859C140.811 18.4186 141.271 18.585 141.859 18.585C142.347 18.585 142.794 18.5348 143.199 18.4346C143.605 18.3343 144.022 18.1839 144.45 17.9834V19.5967C144.072 19.7835 143.675 19.9202 143.261 20.0068C142.851 20.0934 142.352 20.1367 141.764 20.1367C140.998 20.1367 140.319 19.9954 139.727 19.7129C139.139 19.4303 138.676 18.9997 138.339 18.4209C138.006 17.8421 137.84 17.113 137.84 16.2334C137.84 15.3402 137.99 14.5973 138.291 14.0049C138.596 13.4079 139.02 12.9613 139.562 12.665C140.105 12.3643 140.736 12.2139 141.456 12.2139ZM141.47 13.6973C141.064 13.6973 140.727 13.8271 140.458 14.0869C140.194 14.3467 140.041 14.7546 140 15.3105H142.926C142.921 15.0007 142.864 14.7249 142.755 14.4834C142.65 14.2419 142.491 14.0505 142.276 13.9092C142.067 13.7679 141.798 13.6973 141.47 13.6973ZM150.917 12.2139C151.733 12.2139 152.389 12.4372 152.886 12.8838C153.382 13.3258 153.631 14.0368 153.631 15.0166V20H151.546V15.5361C151.546 14.9893 151.446 14.5768 151.245 14.2988C151.049 14.0208 150.739 13.8818 150.315 13.8818C149.677 13.8818 149.242 14.0983 149.01 14.5312C148.777 14.9642 148.661 15.5885 148.661 16.4043V20H146.576V12.3574H148.169L148.449 13.335H148.565C148.729 13.0706 148.932 12.8564 149.174 12.6924C149.42 12.5283 149.691 12.4076 149.987 12.3301C150.288 12.2526 150.598 12.2139 150.917 12.2139ZM162.545 12.2002C163.57 12.2002 164.356 12.4235 164.903 12.8701C165.45 13.3167 165.724 13.9958 165.724 14.9072V20H164.268L163.864 18.9609H163.81C163.591 19.2344 163.368 19.4577 163.14 19.6309C162.912 19.804 162.65 19.9316 162.354 20.0137C162.057 20.0957 161.697 20.1367 161.273 20.1367C160.822 20.1367 160.417 20.0501 160.057 19.877C159.701 19.7038 159.421 19.4395 159.216 19.084C159.011 18.724 158.908 18.2682 158.908 17.7168C158.908 16.9056 159.193 16.3086 159.763 15.9258C160.332 15.5384 161.187 15.3242 162.326 15.2832L163.652 15.2422V14.9072C163.652 14.5062 163.548 14.2122 163.338 14.0254C163.128 13.8385 162.837 13.7451 162.463 13.7451C162.094 13.7451 161.731 13.7975 161.376 13.9023C161.021 14.0072 160.665 14.1393 160.31 14.2988L159.619 12.8906C160.025 12.6764 160.478 12.5078 160.979 12.3848C161.485 12.2617 162.007 12.2002 162.545 12.2002ZM163.652 16.459L162.846 16.4863C162.171 16.5046 161.702 16.6253 161.438 16.8486C161.178 17.0719 161.048 17.3659 161.048 17.7305C161.048 18.0495 161.141 18.2773 161.328 18.4141C161.515 18.5462 161.759 18.6123 162.06 18.6123C162.506 18.6123 162.882 18.4801 163.188 18.2158C163.497 17.9515 163.652 17.5755 163.652 17.0879V16.459ZM172.218 12.2139C173.034 12.2139 173.69 12.4372 174.187 12.8838C174.683 13.3258 174.932 14.0368 174.932 15.0166V20H172.847V15.5361C172.847 14.9893 172.746 14.5768 172.546 14.2988C172.35 14.0208 172.04 13.8818 171.616 13.8818C170.978 13.8818 170.543 14.0983 170.311 14.5312C170.078 14.9642 169.962 15.5885 169.962 16.4043V20H167.877V12.3574H169.47L169.75 13.335H169.866C170.03 13.0706 170.233 12.8564 170.475 12.6924C170.721 12.5283 170.992 12.4076 171.288 12.3301C171.589 12.2526 171.899 12.2139 172.218 12.2139ZM179.498 20.1367C178.646 20.1367 177.951 19.804 177.413 19.1387C176.88 18.4688 176.613 17.4867 176.613 16.1924C176.613 14.8844 176.884 13.8955 177.427 13.2256C177.969 12.5511 178.678 12.2139 179.553 12.2139C179.917 12.2139 180.239 12.264 180.517 12.3643C180.795 12.4645 181.034 12.599 181.234 12.7676C181.439 12.9362 181.613 13.1253 181.754 13.335H181.822C181.795 13.1891 181.761 12.9749 181.72 12.6924C181.683 12.4053 181.665 12.1113 181.665 11.8105V9.36328H183.757V20H182.157L181.754 19.0088H181.665C181.533 19.2184 181.367 19.4098 181.166 19.583C180.97 19.7516 180.735 19.8861 180.462 19.9863C180.188 20.0866 179.867 20.1367 179.498 20.1367ZM180.229 18.4756C180.799 18.4756 181.2 18.307 181.433 17.9697C181.67 17.6279 181.795 17.1152 181.809 16.4316V16.2061C181.809 15.4632 181.695 14.8958 181.467 14.5039C181.239 14.1074 180.815 13.9092 180.195 13.9092C179.735 13.9092 179.375 14.1074 179.115 14.5039C178.855 14.9004 178.726 15.4723 178.726 16.2197C178.726 16.9671 178.855 17.5299 179.115 17.9082C179.38 18.2865 179.751 18.4756 180.229 18.4756ZM7.37598 39L6.78809 36.3271C6.75618 36.1676 6.70378 35.9329 6.63086 35.623C6.55794 35.3086 6.47819 34.9736 6.3916 34.6182C6.30957 34.2581 6.2321 33.9255 6.15918 33.6201C6.09082 33.3148 6.04069 33.0915 6.00879 32.9502H5.94727C5.91536 33.0915 5.86523 33.3148 5.79688 33.6201C5.72852 33.9255 5.65104 34.2581 5.56445 34.6182C5.48242 34.9782 5.40495 35.3177 5.33203 35.6367C5.25911 35.9512 5.20443 36.1904 5.16797 36.3545L4.55273 39H2.31055L0.136719 31.3574H2.21484L3.09668 34.7412C3.15592 34.9782 3.21289 35.2607 3.26758 35.5889C3.32227 35.9124 3.37012 36.2269 3.41113 36.5322C3.45671 36.833 3.49089 37.0723 3.51367 37.25H3.56836C3.57747 37.1178 3.5957 36.9424 3.62305 36.7236C3.65495 36.5049 3.68913 36.2793 3.72559 36.0469C3.7666 35.8099 3.80306 35.598 3.83496 35.4111C3.87142 35.2197 3.89876 35.0898 3.91699 35.0215L4.86035 31.3574H7.15723L8.05273 35.0215C8.08464 35.1536 8.12565 35.3633 8.17578 35.6504C8.23047 35.9375 8.27832 36.2337 8.31934 36.5391C8.36035 36.8398 8.38314 37.0768 8.3877 37.25H8.44238C8.46061 37.0951 8.49251 36.8649 8.53809 36.5596C8.58366 36.2542 8.63607 35.9352 8.69531 35.6025C8.75911 35.2653 8.82292 34.9782 8.88672 34.7412L9.80273 31.3574H11.8467L9.64551 39H7.37598ZM15.1689 28.3633V30.5303C15.1689 30.9085 15.1553 31.2686 15.1279 31.6104C15.1051 31.9521 15.0869 32.1937 15.0732 32.335H15.1826C15.3467 32.0706 15.5404 31.8564 15.7637 31.6924C15.9915 31.5283 16.2422 31.4076 16.5156 31.3301C16.7891 31.2526 17.083 31.2139 17.3975 31.2139C17.9489 31.2139 18.4297 31.3118 18.8398 31.5078C19.25 31.6992 19.569 32.0023 19.7969 32.417C20.0247 32.8271 20.1387 33.3604 20.1387 34.0166V39H18.0537V34.5361C18.0537 33.9893 17.9535 33.5768 17.7529 33.2988C17.5524 33.0208 17.2425 32.8818 16.8232 32.8818C16.404 32.8818 16.0736 32.9798 15.832 33.1758C15.5905 33.3672 15.4196 33.652 15.3193 34.0303C15.2191 34.404 15.1689 34.862 15.1689 35.4043V39H13.084V28.3633H15.1689ZM25.4365 31.2139C26.1429 31.2139 26.7513 31.3506 27.2617 31.624C27.7721 31.8929 28.1663 32.2848 28.4443 32.7998C28.7223 33.3148 28.8613 33.9437 28.8613 34.6865V35.6982H23.9326C23.9554 36.2861 24.1309 36.7487 24.459 37.0859C24.7917 37.4186 25.252 37.585 25.8398 37.585C26.3275 37.585 26.7741 37.5348 27.1797 37.4346C27.5853 37.3343 28.0023 37.1839 28.4307 36.9834V38.5967C28.0524 38.7835 27.6559 38.9202 27.2412 39.0068C26.8311 39.0934 26.332 39.1367 25.7441 39.1367C24.9785 39.1367 24.2995 38.9954 23.707 38.7129C23.1191 38.4303 22.6566 37.9997 22.3193 37.4209C21.9867 36.8421 21.8203 36.113 21.8203 35.2334C21.8203 34.3402 21.9707 33.5973 22.2715 33.0049C22.5768 32.4079 23.0007 31.9613 23.543 31.665C24.0853 31.3643 24.7165 31.2139 25.4365 31.2139ZM25.4502 32.6973C25.0446 32.6973 24.7074 32.8271 24.4385 33.0869C24.1742 33.3467 24.0215 33.7546 23.9805 34.3105H26.9062C26.9017 34.0007 26.8447 33.7249 26.7354 33.4834C26.6305 33.2419 26.471 33.0505 26.2568 32.9092C26.0472 32.7679 25.7783 32.6973 25.4502 32.6973ZM34.8223 31.2139C34.9271 31.2139 35.0479 31.2207 35.1846 31.2344C35.3258 31.2435 35.4398 31.2572 35.5264 31.2754L35.3691 33.2305C35.3008 33.2077 35.2028 33.1917 35.0752 33.1826C34.9521 33.1689 34.8451 33.1621 34.7539 33.1621C34.485 33.1621 34.223 33.1963 33.9678 33.2646C33.7171 33.333 33.4915 33.4447 33.291 33.5996C33.0905 33.75 32.931 33.9505 32.8125 34.2012C32.6986 34.4473 32.6416 34.7503 32.6416 35.1104V39H30.5566V31.3574H32.1357L32.4434 32.6426H32.5459C32.6963 32.3828 32.8831 32.1458 33.1064 31.9316C33.3343 31.7129 33.5918 31.5397 33.8789 31.4121C34.1706 31.2799 34.485 31.2139 34.8223 31.2139ZM40.0654 31.2139C40.7718 31.2139 41.3802 31.3506 41.8906 31.624C42.401 31.8929 42.7952 32.2848 43.0732 32.7998C43.3512 33.3148 43.4902 33.9437 43.4902 34.6865V35.6982H38.5615C38.5843 36.2861 38.7598 36.7487 39.0879 37.0859C39.4206 37.4186 39.8809 37.585 40.4688 37.585C40.9564 37.585 41.403 37.5348 41.8086 37.4346C42.2142 37.3343 42.6312 37.1839 43.0596 36.9834V38.5967C42.6813 38.7835 42.2848 38.9202 41.8701 39.0068C41.46 39.0934 40.9609 39.1367 40.373 39.1367C39.6074 39.1367 38.9284 38.9954 38.3359 38.7129C37.748 38.4303 37.2855 37.9997 36.9482 37.4209C36.6156 36.8421 36.4492 36.113 36.4492 35.2334C36.4492 34.3402 36.5996 33.5973 36.9004 33.0049C37.2057 32.4079 37.6296 31.9613 38.1719 31.665C38.7142 31.3643 39.3454 31.2139 40.0654 31.2139ZM40.0791 32.6973C39.6735 32.6973 39.3363 32.8271 39.0674 33.0869C38.8031 33.3467 38.6504 33.7546 38.6094 34.3105H41.5352C41.5306 34.0007 41.4736 33.7249 41.3643 33.4834C41.2594 33.2419 41.0999 33.0505 40.8857 32.9092C40.6761 32.7679 40.4072 32.6973 40.0791 32.6973ZM47.7285 31.3574H50.0117L51.4541 35.6572C51.4997 35.7939 51.5384 35.9329 51.5703 36.0742C51.6022 36.2155 51.6296 36.3613 51.6523 36.5117C51.6751 36.6621 51.6934 36.8193 51.707 36.9834H51.748C51.7754 36.7373 51.8118 36.5072 51.8574 36.293C51.9076 36.0788 51.9691 35.8669 52.042 35.6572L53.457 31.3574H55.6924L52.459 39.9775C52.263 40.5062 52.0078 40.946 51.6934 41.2969C51.3789 41.6523 51.0166 41.9189 50.6064 42.0967C50.2008 42.2744 49.7542 42.3633 49.2666 42.3633C49.0296 42.3633 48.8245 42.3496 48.6514 42.3223C48.4782 42.2995 48.3301 42.2744 48.207 42.2471V40.5928C48.3027 40.6156 48.4235 40.6361 48.5693 40.6543C48.7152 40.6725 48.8678 40.6816 49.0273 40.6816C49.319 40.6816 49.5697 40.6201 49.7793 40.4971C49.9889 40.374 50.1644 40.2077 50.3057 39.998C50.4469 39.793 50.5586 39.5674 50.6406 39.3213L50.7637 38.9453L47.7285 31.3574ZM63.7383 35.165C63.7383 35.8031 63.6517 36.3682 63.4785 36.8604C63.3099 37.3525 63.0615 37.7695 62.7334 38.1113C62.4098 38.4486 62.0179 38.7038 61.5576 38.877C61.1019 39.0501 60.5869 39.1367 60.0127 39.1367C59.4749 39.1367 58.9805 39.0501 58.5293 38.877C58.0827 38.7038 57.693 38.4486 57.3604 38.1113C57.0322 37.7695 56.777 37.3525 56.5947 36.8604C56.417 36.3682 56.3281 35.8031 56.3281 35.165C56.3281 34.3174 56.4785 33.5996 56.7793 33.0117C57.0801 32.4238 57.5085 31.9772 58.0645 31.6719C58.6204 31.3665 59.2835 31.2139 60.0537 31.2139C60.7692 31.2139 61.4027 31.3665 61.9541 31.6719C62.5101 31.9772 62.9453 32.4238 63.2598 33.0117C63.5788 33.5996 63.7383 34.3174 63.7383 35.165ZM58.4541 35.165C58.4541 35.6663 58.5088 36.0879 58.6182 36.4297C58.7275 36.7715 58.8984 37.029 59.1309 37.2021C59.3633 37.3753 59.6663 37.4619 60.04 37.4619C60.4092 37.4619 60.7077 37.3753 60.9355 37.2021C61.168 37.029 61.3366 36.7715 61.4414 36.4297C61.5508 36.0879 61.6055 35.6663 61.6055 35.165C61.6055 34.6592 61.5508 34.2399 61.4414 33.9072C61.3366 33.57 61.168 33.3171 60.9355 33.1484C60.7031 32.9798 60.4001 32.8955 60.0264 32.8955C59.4749 32.8955 59.0739 33.0846 58.8232 33.4629C58.5771 33.8411 58.4541 34.4085 58.4541 35.165ZM72.4746 31.3574V39H70.875L70.5947 38.0225H70.4854C70.3213 38.2822 70.1162 38.4941 69.8701 38.6582C69.624 38.8223 69.3529 38.943 69.0566 39.0205C68.7604 39.098 68.4528 39.1367 68.1338 39.1367C67.5869 39.1367 67.1107 39.041 66.7051 38.8496C66.2995 38.6536 65.9827 38.3506 65.7549 37.9404C65.5316 37.5303 65.4199 36.9971 65.4199 36.3408V31.3574H67.5049V35.8213C67.5049 36.3682 67.6029 36.7806 67.7988 37.0586C67.9948 37.3366 68.307 37.4756 68.7354 37.4756C69.1592 37.4756 69.4919 37.3799 69.7334 37.1885C69.9749 36.9925 70.1436 36.7077 70.2393 36.334C70.3395 35.9557 70.3896 35.4954 70.3896 34.9531V31.3574H72.4746ZM80.3838 39H78.2988V28.3633H80.3838V39ZM84.6631 31.3574V39H82.5781V31.3574H84.6631ZM83.624 28.3633C83.9339 28.3633 84.2005 28.4362 84.4238 28.582C84.6471 28.7233 84.7588 28.9899 84.7588 29.3818C84.7588 29.7692 84.6471 30.0381 84.4238 30.1885C84.2005 30.3343 83.9339 30.4072 83.624 30.4072C83.3096 30.4072 83.0407 30.3343 82.8174 30.1885C82.5986 30.0381 82.4893 29.7692 82.4893 29.3818C82.4893 28.9899 82.5986 28.7233 82.8174 28.582C83.0407 28.4362 83.3096 28.3633 83.624 28.3633ZM88.9424 28.3633V33.1211C88.9424 33.4082 88.931 33.6953 88.9082 33.9824C88.8854 34.2695 88.8604 34.5566 88.833 34.8438H88.8604C89.0016 34.6432 89.1452 34.445 89.291 34.249C89.4414 34.0531 89.6009 33.8639 89.7695 33.6816L91.9092 31.3574H94.2607L91.2256 34.6729L94.4453 39H92.0391L89.8379 35.9033L88.9424 36.6211V39H86.8574V28.3633H88.9424ZM98.6904 31.2139C99.3968 31.2139 100.005 31.3506 100.516 31.624C101.026 31.8929 101.42 32.2848 101.698 32.7998C101.976 33.3148 102.115 33.9437 102.115 34.6865V35.6982H97.1865C97.2093 36.2861 97.3848 36.7487 97.7129 37.0859C98.0456 37.4186 98.5059 37.585 99.0938 37.585C99.5814 37.585 100.028 37.5348 100.434 37.4346C100.839 37.3343 101.256 37.1839 101.685 36.9834V38.5967C101.306 38.7835 100.91 38.9202 100.495 39.0068C100.085 39.0934 99.5859 39.1367 98.998 39.1367C98.2324 39.1367 97.5534 38.9954 96.9609 38.7129C96.373 38.4303 95.9105 37.9997 95.5732 37.4209C95.2406 36.8421 95.0742 36.113 95.0742 35.2334C95.0742 34.3402 95.2246 33.5973 95.5254 33.0049C95.8307 32.4079 96.2546 31.9613 96.7969 31.665C97.3392 31.3643 97.9704 31.2139 98.6904 31.2139ZM98.7041 32.6973C98.2985 32.6973 97.9613 32.8271 97.6924 33.0869C97.4281 33.3467 97.2754 33.7546 97.2344 34.3105H100.16C100.156 34.0007 100.099 33.7249 99.9893 33.4834C99.8844 33.2419 99.7249 33.0505 99.5107 32.9092C99.3011 32.7679 99.0322 32.6973 98.7041 32.6973ZM103.517 38.0225C103.517 37.5941 103.633 37.2933 103.865 37.1201C104.102 36.9469 104.387 36.8604 104.72 36.8604C105.043 36.8604 105.321 36.9469 105.554 37.1201C105.791 37.2933 105.909 37.5941 105.909 38.0225C105.909 38.4326 105.791 38.7288 105.554 38.9111C105.321 39.0934 105.043 39.1846 104.72 39.1846C104.387 39.1846 104.102 39.0934 103.865 38.9111C103.633 38.7288 103.517 38.4326 103.517 38.0225Z" fill="#2E2E2E"/>
<path d="M9.16016 59.5059V65.9727C9.16016 66.6699 9.01204 67.2943 8.71582 67.8457C8.42415 68.3971 7.9821 68.8346 7.38965 69.1582C6.7972 69.4772 6.05208 69.6367 5.1543 69.6367C3.8737 69.6367 2.89844 69.3018 2.22852 68.6318C1.56315 67.9574 1.23047 67.0618 1.23047 65.9453V59.5059H2.87109V65.8018C2.87109 66.6357 3.06706 67.251 3.45898 67.6475C3.85091 68.0439 4.43652 68.2422 5.21582 68.2422C5.75358 68.2422 6.19108 68.1488 6.52832 67.9619C6.87012 67.7705 7.12077 67.4925 7.28027 67.1279C7.44434 66.7588 7.52637 66.3145 7.52637 65.7949V59.5059H9.16016ZM16.6387 67.3398C16.6387 67.8366 16.5179 68.2559 16.2764 68.5977C16.0348 68.9395 15.6816 69.1992 15.2168 69.377C14.7565 69.5501 14.1914 69.6367 13.5215 69.6367C12.9928 69.6367 12.5371 69.598 12.1543 69.5205C11.776 69.4476 11.4183 69.3337 11.0811 69.1787V67.791C11.4411 67.9596 11.8444 68.1055 12.291 68.2285C12.7422 68.3516 13.1683 68.4131 13.5693 68.4131C14.098 68.4131 14.4785 68.3311 14.7109 68.167C14.9434 67.9984 15.0596 67.7751 15.0596 67.4971C15.0596 67.333 15.0117 67.1872 14.916 67.0596C14.8249 66.9274 14.6517 66.793 14.3965 66.6562C14.1458 66.515 13.7767 66.3464 13.2891 66.1504C12.8105 65.959 12.4072 65.7676 12.0791 65.5762C11.751 65.3848 11.5026 65.1546 11.334 64.8857C11.1654 64.6123 11.0811 64.2637 11.0811 63.8398C11.0811 63.1699 11.3454 62.6618 11.874 62.3154C12.4072 61.9645 13.1113 61.7891 13.9863 61.7891C14.4512 61.7891 14.8887 61.8369 15.2988 61.9326C15.7135 62.0238 16.1191 62.1582 16.5156 62.3359L16.0098 63.5459C15.668 63.3955 15.3239 63.2725 14.9775 63.1768C14.6357 63.0765 14.2871 63.0264 13.9316 63.0264C13.5169 63.0264 13.2002 63.0902 12.9814 63.2178C12.7673 63.3454 12.6602 63.5277 12.6602 63.7646C12.6602 63.9424 12.7126 64.0928 12.8174 64.2158C12.9222 64.3389 13.1022 64.4619 13.3574 64.585C13.6172 64.708 13.9772 64.8607 14.4375 65.043C14.8887 65.2161 15.2783 65.3984 15.6064 65.5898C15.9391 65.7767 16.1943 66.0068 16.3721 66.2803C16.5498 66.5537 16.6387 66.9069 16.6387 67.3398ZM21.3896 61.7891C22.0641 61.7891 22.6429 61.9281 23.126 62.2061C23.609 62.484 23.9805 62.8783 24.2402 63.3887C24.5 63.8991 24.6299 64.5098 24.6299 65.2207V66.082H19.5781C19.5964 66.8158 19.7923 67.3809 20.166 67.7773C20.5443 68.1738 21.0729 68.3721 21.752 68.3721C22.235 68.3721 22.668 68.3265 23.0508 68.2354C23.4382 68.1396 23.8369 68.0007 24.2471 67.8184V69.124C23.8688 69.3018 23.4837 69.4316 23.0918 69.5137C22.6999 69.5957 22.2305 69.6367 21.6836 69.6367C20.9408 69.6367 20.2868 69.4932 19.7217 69.2061C19.1611 68.9144 18.7214 68.4814 18.4023 67.9072C18.0879 67.333 17.9307 66.6198 17.9307 65.7676C17.9307 64.9199 18.0742 64.1999 18.3613 63.6074C18.6484 63.015 19.0518 62.5638 19.5713 62.2539C20.0908 61.944 20.6969 61.7891 21.3896 61.7891ZM21.3896 62.999C20.8838 62.999 20.4736 63.1631 20.1592 63.4912C19.8493 63.8193 19.667 64.3001 19.6123 64.9336H23.0576C23.0531 64.5553 22.9893 64.2204 22.8662 63.9287C22.7477 63.637 22.5654 63.4092 22.3193 63.2451C22.0778 63.0811 21.7679 62.999 21.3896 62.999ZM32.8945 68.3379C33.1042 68.3379 33.3115 68.3197 33.5166 68.2832C33.7217 68.2422 33.9085 68.1943 34.0771 68.1396V69.3564C33.8994 69.4339 33.6693 69.5 33.3867 69.5547C33.1042 69.6094 32.8102 69.6367 32.5049 69.6367C32.0765 69.6367 31.6914 69.5661 31.3496 69.4248C31.0078 69.279 30.7367 69.0306 30.5361 68.6797C30.3356 68.3288 30.2354 67.8434 30.2354 67.2236V63.1562H29.2031V62.4385L30.3105 61.8711L30.8369 60.251H31.8486V61.9326H34.0156V63.1562H31.8486V67.2031C31.8486 67.5859 31.9443 67.8708 32.1357 68.0576C32.3271 68.2445 32.5801 68.3379 32.8945 68.3379ZM37.2217 58.8633V61.5361C37.2217 61.8141 37.2126 62.0853 37.1943 62.3496C37.1807 62.6139 37.1647 62.819 37.1465 62.9648H37.2354C37.3949 62.7005 37.5908 62.484 37.8232 62.3154C38.0557 62.1423 38.3154 62.0124 38.6025 61.9258C38.8942 61.8392 39.2041 61.7959 39.5322 61.7959C40.111 61.7959 40.6032 61.8939 41.0088 62.0898C41.4144 62.2812 41.7243 62.5798 41.9385 62.9854C42.1572 63.391 42.2666 63.9173 42.2666 64.5645V69.5H40.6602V64.8652C40.6602 64.2773 40.5394 63.8376 40.2979 63.5459C40.0563 63.2497 39.6826 63.1016 39.1768 63.1016C38.6891 63.1016 38.3018 63.2041 38.0146 63.4092C37.7321 63.6097 37.5293 63.9082 37.4062 64.3047C37.2832 64.6966 37.2217 65.1751 37.2217 65.7402V69.5H35.6152V58.8633H37.2217ZM47.5303 61.7891C48.2048 61.7891 48.7835 61.9281 49.2666 62.2061C49.7497 62.484 50.1211 62.8783 50.3809 63.3887C50.6406 63.8991 50.7705 64.5098 50.7705 65.2207V66.082H45.7188C45.737 66.8158 45.9329 67.3809 46.3066 67.7773C46.6849 68.1738 47.2135 68.3721 47.8926 68.3721C48.3757 68.3721 48.8086 68.3265 49.1914 68.2354C49.5788 68.1396 49.9775 68.0007 50.3877 67.8184V69.124C50.0094 69.3018 49.6243 69.4316 49.2324 69.5137C48.8405 69.5957 48.3711 69.6367 47.8242 69.6367C47.0814 69.6367 46.4274 69.4932 45.8623 69.2061C45.3018 68.9144 44.862 68.4814 44.543 67.9072C44.2285 67.333 44.0713 66.6198 44.0713 65.7676C44.0713 64.9199 44.2148 64.1999 44.502 63.6074C44.7891 63.015 45.1924 62.5638 45.7119 62.2539C46.2314 61.944 46.8376 61.7891 47.5303 61.7891ZM47.5303 62.999C47.0244 62.999 46.6143 63.1631 46.2998 63.4912C45.9899 63.8193 45.8076 64.3001 45.7529 64.9336H49.1982C49.1937 64.5553 49.1299 64.2204 49.0068 63.9287C48.8883 63.637 48.7061 63.4092 48.46 63.2451C48.2184 63.0811 47.9085 62.999 47.5303 62.999ZM57.832 69.5H56.2188V58.8633H57.832V69.5ZM61.7354 61.9326V69.5H60.1289V61.9326H61.7354ZM60.9424 59.0342C61.1885 59.0342 61.4004 59.1003 61.5781 59.2324C61.7604 59.3646 61.8516 59.5924 61.8516 59.916C61.8516 60.235 61.7604 60.4629 61.5781 60.5996C61.4004 60.7318 61.1885 60.7979 60.9424 60.7979C60.6872 60.7979 60.4707 60.7318 60.293 60.5996C60.1198 60.4629 60.0332 60.235 60.0332 59.916C60.0332 59.5924 60.1198 59.3646 60.293 59.2324C60.4707 59.1003 60.6872 59.0342 60.9424 59.0342ZM69.125 67.3398C69.125 67.8366 69.0042 68.2559 68.7627 68.5977C68.5212 68.9395 68.168 69.1992 67.7031 69.377C67.2428 69.5501 66.6777 69.6367 66.0078 69.6367C65.4792 69.6367 65.0234 69.598 64.6406 69.5205C64.2624 69.4476 63.9046 69.3337 63.5674 69.1787V67.791C63.9274 67.9596 64.3307 68.1055 64.7773 68.2285C65.2285 68.3516 65.6546 68.4131 66.0557 68.4131C66.5843 68.4131 66.9648 68.3311 67.1973 68.167C67.4297 67.9984 67.5459 67.7751 67.5459 67.4971C67.5459 67.333 67.498 67.1872 67.4023 67.0596C67.3112 66.9274 67.138 66.793 66.8828 66.6562C66.6322 66.515 66.263 66.3464 65.7754 66.1504C65.2969 65.959 64.8936 65.7676 64.5654 65.5762C64.2373 65.3848 63.9889 65.1546 63.8203 64.8857C63.6517 64.6123 63.5674 64.2637 63.5674 63.8398C63.5674 63.1699 63.8317 62.6618 64.3604 62.3154C64.8936 61.9645 65.5977 61.7891 66.4727 61.7891C66.9375 61.7891 67.375 61.8369 67.7852 61.9326C68.1999 62.0238 68.6055 62.1582 69.002 62.3359L68.4961 63.5459C68.1543 63.3955 67.8102 63.2725 67.4639 63.1768C67.1221 63.0765 66.7734 63.0264 66.418 63.0264C66.0033 63.0264 65.6865 63.0902 65.4678 63.2178C65.2536 63.3454 65.1465 63.5277 65.1465 63.7646C65.1465 63.9424 65.1989 64.0928 65.3037 64.2158C65.4085 64.3389 65.5885 64.4619 65.8438 64.585C66.1035 64.708 66.4635 64.8607 66.9238 65.043C67.375 65.2161 67.7646 65.3984 68.0928 65.5898C68.4255 65.7767 68.6807 66.0068 68.8584 66.2803C69.0361 66.5537 69.125 66.9069 69.125 67.3398ZM73.6777 68.3379C73.8874 68.3379 74.0947 68.3197 74.2998 68.2832C74.5049 68.2422 74.6917 68.1943 74.8604 68.1396V69.3564C74.6826 69.4339 74.4525 69.5 74.1699 69.5547C73.8874 69.6094 73.5934 69.6367 73.2881 69.6367C72.8597 69.6367 72.4746 69.5661 72.1328 69.4248C71.791 69.279 71.5199 69.0306 71.3193 68.6797C71.1188 68.3288 71.0186 67.8434 71.0186 67.2236V63.1562H69.9863V62.4385L71.0938 61.8711L71.6201 60.251H72.6318V61.9326H74.7988V63.1562H72.6318V67.2031C72.6318 67.5859 72.7275 67.8708 72.9189 68.0576C73.1104 68.2445 73.3633 68.3379 73.6777 68.3379ZM81.6416 58.8633V61.4268C81.6416 61.723 81.6325 62.0146 81.6143 62.3018C81.6006 62.5843 81.5869 62.8053 81.5732 62.9648H81.6416C81.8467 62.6367 82.1315 62.361 82.4961 62.1377C82.8652 61.9098 83.3369 61.7959 83.9111 61.7959C84.8089 61.7959 85.5312 62.1263 86.0781 62.7871C86.625 63.4434 86.8984 64.4163 86.8984 65.7061C86.8984 66.5628 86.7731 67.2829 86.5225 67.8662C86.2718 68.4495 85.9186 68.8916 85.4629 69.1924C85.0117 69.4886 84.4808 69.6367 83.8701 69.6367C83.2959 69.6367 82.8311 69.5319 82.4756 69.3223C82.1247 69.1081 81.849 68.8597 81.6484 68.5771H81.5322L81.2383 69.5H80.0352V58.8633H81.6416ZM83.4873 63.1016C83.0316 63.1016 82.6693 63.1927 82.4004 63.375C82.1361 63.5573 81.9447 63.8307 81.8262 64.1953C81.7077 64.5553 81.6462 65.0133 81.6416 65.5693V65.7129C81.6416 66.556 81.7738 67.2008 82.0381 67.6475C82.307 68.0941 82.7946 68.3174 83.501 68.3174C84.0615 68.3174 84.4922 68.0918 84.793 67.6406C85.0938 67.1849 85.2441 66.5332 85.2441 65.6855C85.2441 64.8288 85.0938 64.1839 84.793 63.751C84.4967 63.318 84.0615 63.1016 83.4873 63.1016ZM91.7725 61.7891C92.4469 61.7891 93.0257 61.9281 93.5088 62.2061C93.9919 62.484 94.3633 62.8783 94.623 63.3887C94.8828 63.8991 95.0127 64.5098 95.0127 65.2207V66.082H89.9609C89.9792 66.8158 90.1751 67.3809 90.5488 67.7773C90.9271 68.1738 91.4557 68.3721 92.1348 68.3721C92.6178 68.3721 93.0508 68.3265 93.4336 68.2354C93.821 68.1396 94.2197 68.0007 94.6299 67.8184V69.124C94.2516 69.3018 93.8665 69.4316 93.4746 69.5137C93.0827 69.5957 92.6133 69.6367 92.0664 69.6367C91.3236 69.6367 90.6696 69.4932 90.1045 69.2061C89.5439 68.9144 89.1042 68.4814 88.7852 67.9072C88.4707 67.333 88.3135 66.6198 88.3135 65.7676C88.3135 64.9199 88.457 64.1999 88.7441 63.6074C89.0312 63.015 89.4346 62.5638 89.9541 62.2539C90.4736 61.944 91.0798 61.7891 91.7725 61.7891ZM91.7725 62.999C91.2666 62.999 90.8564 63.1631 90.542 63.4912C90.2321 63.8193 90.0498 64.3001 89.9951 64.9336H93.4404C93.4359 64.5553 93.3721 64.2204 93.249 63.9287C93.1305 63.637 92.9482 63.4092 92.7021 63.2451C92.4606 63.0811 92.1507 62.999 91.7725 62.999ZM98.4375 69.5H96.8242V58.8633H98.4375V69.5ZM107.434 65.6992C107.434 66.3281 107.352 66.8864 107.188 67.374C107.023 67.8617 106.784 68.2741 106.47 68.6113C106.155 68.944 105.777 69.1992 105.335 69.377C104.893 69.5501 104.394 69.6367 103.838 69.6367C103.318 69.6367 102.842 69.5501 102.409 69.377C101.976 69.1992 101.6 68.944 101.281 68.6113C100.967 68.2741 100.723 67.8617 100.55 67.374C100.377 66.8864 100.29 66.3281 100.29 65.6992C100.29 64.8652 100.434 64.1589 100.721 63.5801C101.012 62.9967 101.427 62.5524 101.965 62.2471C102.503 61.9417 103.143 61.7891 103.886 61.7891C104.583 61.7891 105.198 61.9417 105.731 62.2471C106.265 62.5524 106.682 62.9967 106.982 63.5801C107.283 64.1634 107.434 64.8698 107.434 65.6992ZM101.944 65.6992C101.944 66.2507 102.01 66.7223 102.143 67.1143C102.279 67.5062 102.489 67.807 102.771 68.0166C103.054 68.2217 103.419 68.3242 103.865 68.3242C104.312 68.3242 104.676 68.2217 104.959 68.0166C105.242 67.807 105.449 67.5062 105.581 67.1143C105.713 66.7223 105.779 66.2507 105.779 65.6992C105.779 65.1478 105.713 64.6807 105.581 64.2979C105.449 63.9105 105.242 63.6165 104.959 63.416C104.676 63.2109 104.31 63.1084 103.858 63.1084C103.193 63.1084 102.708 63.3317 102.402 63.7783C102.097 64.2249 101.944 64.8652 101.944 65.6992ZM115.466 69.4932L114.509 65.9727C114.463 65.7995 114.409 65.5898 114.345 65.3438C114.281 65.0977 114.217 64.8447 114.153 64.585C114.09 64.3206 114.03 64.0768 113.976 63.8535C113.925 63.6302 113.887 63.457 113.859 63.334H113.805C113.782 63.457 113.745 63.6302 113.695 63.8535C113.645 64.0768 113.588 64.3206 113.524 64.585C113.461 64.8493 113.397 65.1068 113.333 65.3574C113.274 65.6081 113.219 65.8223 113.169 66L112.164 69.4932H110.4L108.281 61.9258H109.908L110.893 65.6855C110.956 65.9408 111.018 66.2165 111.077 66.5127C111.141 66.8089 111.196 67.0915 111.241 67.3604C111.287 67.6292 111.321 67.8503 111.344 68.0234H111.398C111.417 67.9004 111.442 67.7454 111.474 67.5586C111.506 67.3672 111.542 67.1689 111.583 66.9639C111.624 66.7542 111.665 66.5583 111.706 66.376C111.747 66.1891 111.786 66.0387 111.822 65.9248L112.984 61.9258H114.741L115.855 65.9248C115.906 66.098 115.96 66.3167 116.02 66.5811C116.079 66.8408 116.131 67.1029 116.177 67.3672C116.227 67.627 116.259 67.8434 116.272 68.0166H116.327C116.345 67.8617 116.377 67.652 116.423 67.3877C116.473 67.1188 116.53 66.834 116.594 66.5332C116.658 66.2279 116.724 65.9453 116.792 65.6855L117.797 61.9258H119.396L117.264 69.4932H115.466ZM127.148 68.3379C127.358 68.3379 127.565 68.3197 127.771 68.2832C127.976 68.2422 128.162 68.1943 128.331 68.1396V69.3564C128.153 69.4339 127.923 69.5 127.641 69.5547C127.358 69.6094 127.064 69.6367 126.759 69.6367C126.33 69.6367 125.945 69.5661 125.604 69.4248C125.262 69.279 124.991 69.0306 124.79 68.6797C124.59 68.3288 124.489 67.8434 124.489 67.2236V63.1562H123.457V62.4385L124.564 61.8711L125.091 60.251H126.103V61.9326H128.27V63.1562H126.103V67.2031C126.103 67.5859 126.198 67.8708 126.39 68.0576C126.581 68.2445 126.834 68.3379 127.148 68.3379ZM136.568 65.6992C136.568 66.3281 136.486 66.8864 136.322 67.374C136.158 67.8617 135.919 68.2741 135.604 68.6113C135.29 68.944 134.912 69.1992 134.47 69.377C134.028 69.5501 133.529 69.6367 132.973 69.6367C132.453 69.6367 131.977 69.5501 131.544 69.377C131.111 69.1992 130.735 68.944 130.416 68.6113C130.102 68.2741 129.858 67.8617 129.685 67.374C129.511 66.8864 129.425 66.3281 129.425 65.6992C129.425 64.8652 129.568 64.1589 129.855 63.5801C130.147 62.9967 130.562 62.5524 131.1 62.2471C131.637 61.9417 132.278 61.7891 133.021 61.7891C133.718 61.7891 134.333 61.9417 134.866 62.2471C135.399 62.5524 135.816 62.9967 136.117 63.5801C136.418 64.1634 136.568 64.8698 136.568 65.6992ZM131.079 65.6992C131.079 66.2507 131.145 66.7223 131.277 67.1143C131.414 67.5062 131.624 67.807 131.906 68.0166C132.189 68.2217 132.553 68.3242 133 68.3242C133.447 68.3242 133.811 68.2217 134.094 68.0166C134.376 67.807 134.584 67.5062 134.716 67.1143C134.848 66.7223 134.914 66.2507 134.914 65.6992C134.914 65.1478 134.848 64.6807 134.716 64.2979C134.584 63.9105 134.376 63.6165 134.094 63.416C133.811 63.2109 133.444 63.1084 132.993 63.1084C132.328 63.1084 131.842 63.3317 131.537 63.7783C131.232 64.2249 131.079 64.8652 131.079 65.6992ZM143.657 58.8633V61.4268C143.657 61.723 143.648 62.0146 143.63 62.3018C143.616 62.5843 143.603 62.8053 143.589 62.9648H143.657C143.862 62.6367 144.147 62.361 144.512 62.1377C144.881 61.9098 145.353 61.7959 145.927 61.7959C146.825 61.7959 147.547 62.1263 148.094 62.7871C148.641 63.4434 148.914 64.4163 148.914 65.7061C148.914 66.5628 148.789 67.2829 148.538 67.8662C148.287 68.4495 147.934 68.8916 147.479 69.1924C147.027 69.4886 146.496 69.6367 145.886 69.6367C145.312 69.6367 144.847 69.5319 144.491 69.3223C144.14 69.1081 143.865 68.8597 143.664 68.5771H143.548L143.254 69.5H142.051V58.8633H143.657ZM145.503 63.1016C145.047 63.1016 144.685 63.1927 144.416 63.375C144.152 63.5573 143.96 63.8307 143.842 64.1953C143.723 64.5553 143.662 65.0133 143.657 65.5693V65.7129C143.657 66.556 143.789 67.2008 144.054 67.6475C144.323 68.0941 144.81 68.3174 145.517 68.3174C146.077 68.3174 146.508 68.0918 146.809 67.6406C147.109 67.1849 147.26 66.5332 147.26 65.6855C147.26 64.8288 147.109 64.1839 146.809 63.751C146.512 63.318 146.077 63.1016 145.503 63.1016ZM154.608 61.7891C154.736 61.7891 154.875 61.7959 155.025 61.8096C155.176 61.8232 155.306 61.8415 155.415 61.8643L155.265 63.3682C155.169 63.3408 155.05 63.3203 154.909 63.3066C154.772 63.293 154.649 63.2861 154.54 63.2861C154.253 63.2861 153.979 63.334 153.72 63.4297C153.46 63.5208 153.23 63.6621 153.029 63.8535C152.829 64.0404 152.672 64.2751 152.558 64.5576C152.444 64.8402 152.387 65.1683 152.387 65.542V69.5H150.773V61.9326H152.031L152.25 63.2656H152.325C152.476 62.9967 152.662 62.7507 152.886 62.5273C153.109 62.304 153.364 62.1263 153.651 61.9941C153.943 61.8574 154.262 61.7891 154.608 61.7891ZM158.423 61.9326V69.5H156.816V61.9326H158.423ZM157.63 59.0342C157.876 59.0342 158.088 59.1003 158.266 59.2324C158.448 59.3646 158.539 59.5924 158.539 59.916C158.539 60.235 158.448 60.4629 158.266 60.5996C158.088 60.7318 157.876 60.7979 157.63 60.7979C157.375 60.7979 157.158 60.7318 156.98 60.5996C156.807 60.4629 156.721 60.235 156.721 59.916C156.721 59.5924 156.807 59.3646 156.98 59.2324C157.158 59.1003 157.375 59.0342 157.63 59.0342ZM164.671 61.7891C165.523 61.7891 166.186 62.0101 166.66 62.4521C167.139 62.8896 167.378 63.5938 167.378 64.5645V69.5H165.771V64.8652C165.771 64.2773 165.651 63.8376 165.409 63.5459C165.168 63.2497 164.794 63.1016 164.288 63.1016C163.554 63.1016 163.044 63.3271 162.757 63.7783C162.474 64.2295 162.333 64.8835 162.333 65.7402V69.5H160.727V61.9326H161.978L162.203 62.958H162.292C162.456 62.6937 162.659 62.4772 162.9 62.3086C163.146 62.1354 163.42 62.0055 163.721 61.9189C164.026 61.8324 164.343 61.7891 164.671 61.7891ZM171.787 72.8633C170.762 72.8633 169.976 72.6787 169.429 72.3096C168.882 71.9404 168.608 71.4232 168.608 70.7578C168.608 70.293 168.754 69.8988 169.046 69.5752C169.338 69.2562 169.755 69.0352 170.297 68.9121C170.092 68.821 169.914 68.6797 169.764 68.4883C169.618 68.2923 169.545 68.0758 169.545 67.8389C169.545 67.5563 169.625 67.3148 169.784 67.1143C169.944 66.9137 170.183 66.7201 170.502 66.5332C170.105 66.3646 169.786 66.0911 169.545 65.7129C169.308 65.3301 169.189 64.8812 169.189 64.3662C169.189 63.8193 169.306 63.3545 169.538 62.9717C169.771 62.5843 170.11 62.2904 170.557 62.0898C171.003 61.8848 171.543 61.7822 172.177 61.7822C172.313 61.7822 172.462 61.7913 172.621 61.8096C172.785 61.8232 172.936 61.8415 173.072 61.8643C173.214 61.8825 173.321 61.903 173.394 61.9258H176.012V62.8213L174.727 63.0605C174.85 63.2337 174.948 63.432 175.021 63.6553C175.093 63.874 175.13 64.1133 175.13 64.373C175.13 65.1569 174.859 65.7744 174.316 66.2256C173.779 66.6722 173.036 66.8955 172.088 66.8955C171.86 66.8864 171.639 66.8682 171.425 66.8408C171.261 66.9411 171.135 67.0527 171.049 67.1758C170.962 67.2943 170.919 67.4287 170.919 67.5791C170.919 67.7021 170.962 67.8024 171.049 67.8799C171.135 67.9528 171.263 68.0075 171.432 68.0439C171.605 68.0804 171.814 68.0986 172.061 68.0986H173.366C174.196 68.0986 174.829 68.2741 175.267 68.625C175.704 68.9759 175.923 69.4909 175.923 70.1699C175.923 71.0312 175.567 71.6943 174.856 72.1592C174.146 72.6286 173.122 72.8633 171.787 72.8633ZM171.849 71.7354C172.409 71.7354 172.881 71.6807 173.264 71.5713C173.646 71.4619 173.936 71.3047 174.132 71.0996C174.328 70.8991 174.426 70.6598 174.426 70.3818C174.426 70.1357 174.364 69.9466 174.241 69.8145C174.118 69.6823 173.934 69.5911 173.688 69.541C173.441 69.4909 173.136 69.4658 172.771 69.4658H171.582C171.286 69.4658 171.024 69.5114 170.796 69.6025C170.568 69.6982 170.39 69.835 170.263 70.0127C170.14 70.1904 170.078 70.4046 170.078 70.6553C170.078 71.0016 170.231 71.2682 170.536 71.4551C170.846 71.6419 171.284 71.7354 171.849 71.7354ZM172.163 65.8428C172.632 65.8428 172.981 65.7152 173.209 65.46C173.437 65.2002 173.551 64.8356 173.551 64.3662C173.551 63.8558 173.432 63.473 173.195 63.2178C172.963 62.9626 172.617 62.835 172.156 62.835C171.705 62.835 171.361 62.9648 171.124 63.2246C170.892 63.4844 170.775 63.8695 170.775 64.3799C170.775 64.8402 170.892 65.2002 171.124 65.46C171.361 65.7152 171.707 65.8428 172.163 65.8428ZM4.11523 80.7891C5.07227 80.7891 5.7946 81.001 6.28223 81.4248C6.77441 81.8486 7.02051 82.5094 7.02051 83.4072V88.5H5.87891L5.57129 87.4268H5.5166C5.30241 87.7002 5.08138 87.9258 4.85352 88.1035C4.62565 88.2812 4.36133 88.4134 4.06055 88.5C3.76432 88.5911 3.40202 88.6367 2.97363 88.6367C2.52246 88.6367 2.11914 88.5547 1.76367 88.3906C1.4082 88.222 1.12793 87.9668 0.922852 87.625C0.717773 87.2832 0.615234 86.8503 0.615234 86.3262C0.615234 85.5469 0.904622 84.9613 1.4834 84.5693C2.06673 84.1774 2.94629 83.9609 4.12207 83.9199L5.43457 83.8721V83.4756C5.43457 82.9515 5.31152 82.5778 5.06543 82.3545C4.82389 82.1312 4.4821 82.0195 4.04004 82.0195C3.66178 82.0195 3.29492 82.0742 2.93945 82.1836C2.58398 82.293 2.23763 82.4274 1.90039 82.5869L1.38086 81.4521C1.75 81.2562 2.16927 81.0967 2.63867 80.9736C3.11263 80.8506 3.60482 80.7891 4.11523 80.7891ZM5.42773 84.8838L4.4502 84.918C3.64811 84.9453 3.08529 85.082 2.76172 85.3281C2.43815 85.5742 2.27637 85.9115 2.27637 86.3398C2.27637 86.7135 2.38802 86.987 2.61133 87.1602C2.83464 87.3288 3.12858 87.4131 3.49316 87.4131C4.04915 87.4131 4.50944 87.2559 4.87402 86.9414C5.24316 86.6224 5.42773 86.1553 5.42773 85.54V84.8838ZM12.0859 87.3379C12.2956 87.3379 12.5029 87.3197 12.708 87.2832C12.9131 87.2422 13.0999 87.1943 13.2686 87.1396V88.3564C13.0908 88.4339 12.8607 88.5 12.5781 88.5547C12.2956 88.6094 12.0016 88.6367 11.6963 88.6367C11.2679 88.6367 10.8828 88.5661 10.541 88.4248C10.1992 88.279 9.92806 88.0306 9.72754 87.6797C9.52702 87.3288 9.42676 86.8434 9.42676 86.2236V82.1562H8.39453V81.4385L9.50195 80.8711L10.0283 79.251H11.04V80.9326H13.207V82.1562H11.04V86.2031C11.04 86.5859 11.1357 86.8708 11.3271 87.0576C11.5186 87.2445 11.7715 87.3379 12.0859 87.3379ZM17.623 87.3379C17.8327 87.3379 18.04 87.3197 18.2451 87.2832C18.4502 87.2422 18.637 87.1943 18.8057 87.1396V88.3564C18.6279 88.4339 18.3978 88.5 18.1152 88.5547C17.8327 88.6094 17.5387 88.6367 17.2334 88.6367C16.805 88.6367 16.4199 88.5661 16.0781 88.4248C15.7363 88.279 15.4652 88.0306 15.2646 87.6797C15.0641 87.3288 14.9639 86.8434 14.9639 86.2236V82.1562H13.9316V81.4385L15.0391 80.8711L15.5654 79.251H16.5771V80.9326H18.7441V82.1562H16.5771V86.2031C16.5771 86.5859 16.6729 86.8708 16.8643 87.0576C17.0557 87.2445 17.3086 87.3379 17.623 87.3379ZM23.3584 80.7891C24.0329 80.7891 24.6117 80.9281 25.0947 81.2061C25.5778 81.484 25.9492 81.8783 26.209 82.3887C26.4688 82.8991 26.5986 83.5098 26.5986 84.2207V85.082H21.5469C21.5651 85.8158 21.7611 86.3809 22.1348 86.7773C22.513 87.1738 23.0417 87.3721 23.7207 87.3721C24.2038 87.3721 24.6367 87.3265 25.0195 87.2354C25.4069 87.1396 25.8057 87.0007 26.2158 86.8184V88.124C25.8376 88.3018 25.4525 88.4316 25.0605 88.5137C24.6686 88.5957 24.1992 88.6367 23.6523 88.6367C22.9095 88.6367 22.2555 88.4932 21.6904 88.2061C21.1299 87.9144 20.6901 87.4814 20.3711 86.9072C20.0566 86.333 19.8994 85.6198 19.8994 84.7676C19.8994 83.9199 20.043 83.1999 20.3301 82.6074C20.6172 82.015 21.0205 81.5638 21.54 81.2539C22.0596 80.944 22.6657 80.7891 23.3584 80.7891ZM23.3584 81.999C22.8525 81.999 22.4424 82.1631 22.1279 82.4912C21.818 82.8193 21.6357 83.3001 21.5811 83.9336H25.0264C25.0218 83.5553 24.958 83.2204 24.835 82.9287C24.7165 82.637 24.5342 82.4092 24.2881 82.2451C24.0465 82.0811 23.7367 81.999 23.3584 81.999ZM32.3545 80.7891C33.2067 80.7891 33.8698 81.0101 34.3438 81.4521C34.8223 81.8896 35.0615 82.5938 35.0615 83.5645V88.5H33.4551V83.8652C33.4551 83.2773 33.3343 82.8376 33.0928 82.5459C32.8512 82.2497 32.4775 82.1016 31.9717 82.1016C31.238 82.1016 30.7275 82.3271 30.4404 82.7783C30.1579 83.2295 30.0166 83.8835 30.0166 84.7402V88.5H28.4102V80.9326H29.6611L29.8867 81.958H29.9756C30.1396 81.6937 30.3424 81.4772 30.584 81.3086C30.8301 81.1354 31.1035 81.0055 31.4043 80.9189C31.7096 80.8324 32.0264 80.7891 32.3545 80.7891ZM40.127 87.3379C40.3366 87.3379 40.5439 87.3197 40.749 87.2832C40.9541 87.2422 41.141 87.1943 41.3096 87.1396V88.3564C41.1318 88.4339 40.9017 88.5 40.6191 88.5547C40.3366 88.6094 40.0426 88.6367 39.7373 88.6367C39.3089 88.6367 38.9238 88.5661 38.582 88.4248C38.2402 88.279 37.9691 88.0306 37.7686 87.6797C37.568 87.3288 37.4678 86.8434 37.4678 86.2236V82.1562H36.4355V81.4385L37.543 80.8711L38.0693 79.251H39.0811V80.9326H41.248V82.1562H39.0811V86.2031C39.0811 86.5859 39.1768 86.8708 39.3682 87.0576C39.5596 87.2445 39.8125 87.3379 40.127 87.3379ZM44.4541 80.9326V88.5H42.8477V80.9326H44.4541ZM43.6611 78.0342C43.9072 78.0342 44.1191 78.1003 44.2969 78.2324C44.4792 78.3646 44.5703 78.5924 44.5703 78.916C44.5703 79.235 44.4792 79.4629 44.2969 79.5996C44.1191 79.7318 43.9072 79.7979 43.6611 79.7979C43.4059 79.7979 43.1895 79.7318 43.0117 79.5996C42.8385 79.4629 42.752 79.235 42.752 78.916C42.752 78.5924 42.8385 78.3646 43.0117 78.2324C43.1895 78.1003 43.4059 78.0342 43.6611 78.0342ZM53.457 84.6992C53.457 85.3281 53.375 85.8864 53.2109 86.374C53.0469 86.8617 52.8076 87.2741 52.4932 87.6113C52.1787 87.944 51.8005 88.1992 51.3584 88.377C50.9163 88.5501 50.4173 88.6367 49.8613 88.6367C49.3418 88.6367 48.8656 88.5501 48.4326 88.377C47.9997 88.1992 47.6237 87.944 47.3047 87.6113C46.9902 87.2741 46.7464 86.8617 46.5732 86.374C46.4001 85.8864 46.3135 85.3281 46.3135 84.6992C46.3135 83.8652 46.457 83.1589 46.7441 82.5801C47.0358 81.9967 47.4505 81.5524 47.9883 81.2471C48.526 80.9417 49.1663 80.7891 49.9092 80.7891C50.6064 80.7891 51.2217 80.9417 51.7549 81.2471C52.2881 81.5524 52.7051 81.9967 53.0059 82.5801C53.3066 83.1634 53.457 83.8698 53.457 84.6992ZM47.9678 84.6992C47.9678 85.2507 48.0339 85.7223 48.166 86.1143C48.3027 86.5062 48.5124 86.807 48.7949 87.0166C49.0775 87.2217 49.4421 87.3242 49.8887 87.3242C50.3353 87.3242 50.6999 87.2217 50.9824 87.0166C51.265 86.807 51.4723 86.5062 51.6045 86.1143C51.7367 85.7223 51.8027 85.2507 51.8027 84.6992C51.8027 84.1478 51.7367 83.6807 51.6045 83.2979C51.4723 82.9105 51.265 82.6165 50.9824 82.416C50.6999 82.2109 50.333 82.1084 49.8818 82.1084C49.2165 82.1084 48.7311 82.3317 48.4258 82.7783C48.1204 83.2249 47.9678 83.8652 47.9678 84.6992ZM59.2471 80.7891C60.0993 80.7891 60.7624 81.0101 61.2363 81.4521C61.7148 81.8896 61.9541 82.5938 61.9541 83.5645V88.5H60.3477V83.8652C60.3477 83.2773 60.2269 82.8376 59.9854 82.5459C59.7438 82.2497 59.3701 82.1016 58.8643 82.1016C58.1305 82.1016 57.6201 82.3271 57.333 82.7783C57.0505 83.2295 56.9092 83.8835 56.9092 84.7402V88.5H55.3027V80.9326H56.5537L56.7793 81.958H56.8682C57.0322 81.6937 57.235 81.4772 57.4766 81.3086C57.7227 81.1354 57.9961 81.0055 58.2969 80.9189C58.6022 80.8324 58.9189 80.7891 59.2471 80.7891ZM70.6562 87.3379C70.8659 87.3379 71.0732 87.3197 71.2783 87.2832C71.4834 87.2422 71.6702 87.1943 71.8389 87.1396V88.3564C71.6611 88.4339 71.431 88.5 71.1484 88.5547C70.8659 88.6094 70.5719 88.6367 70.2666 88.6367C69.8382 88.6367 69.4531 88.5661 69.1113 88.4248C68.7695 88.279 68.4984 88.0306 68.2979 87.6797C68.0973 87.3288 67.9971 86.8434 67.9971 86.2236V82.1562H66.9648V81.4385L68.0723 80.8711L68.5986 79.251H69.6104V80.9326H71.7773V82.1562H69.6104V86.2031C69.6104 86.5859 69.7061 86.8708 69.8975 87.0576C70.0889 87.2445 70.3418 87.3379 70.6562 87.3379ZM80.0762 84.6992C80.0762 85.3281 79.9941 85.8864 79.8301 86.374C79.666 86.8617 79.4268 87.2741 79.1123 87.6113C78.7979 87.944 78.4196 88.1992 77.9775 88.377C77.5355 88.5501 77.0365 88.6367 76.4805 88.6367C75.9609 88.6367 75.4847 88.5501 75.0518 88.377C74.6188 88.1992 74.2428 87.944 73.9238 87.6113C73.6094 87.2741 73.3656 86.8617 73.1924 86.374C73.0192 85.8864 72.9326 85.3281 72.9326 84.6992C72.9326 83.8652 73.0762 83.1589 73.3633 82.5801C73.6549 81.9967 74.0697 81.5524 74.6074 81.2471C75.1452 80.9417 75.7855 80.7891 76.5283 80.7891C77.2256 80.7891 77.8408 80.9417 78.374 81.2471C78.9072 81.5524 79.3242 81.9967 79.625 82.5801C79.9258 83.1634 80.0762 83.8698 80.0762 84.6992ZM74.5869 84.6992C74.5869 85.2507 74.653 85.7223 74.7852 86.1143C74.9219 86.5062 75.1315 86.807 75.4141 87.0166C75.6966 87.2217 76.0612 87.3242 76.5078 87.3242C76.9544 87.3242 77.319 87.2217 77.6016 87.0166C77.8841 86.807 78.0915 86.5062 78.2236 86.1143C78.3558 85.7223 78.4219 85.2507 78.4219 84.6992C78.4219 84.1478 78.3558 83.6807 78.2236 83.2979C78.0915 82.9105 77.8841 82.6165 77.6016 82.416C77.319 82.2109 76.9521 82.1084 76.501 82.1084C75.8356 82.1084 75.3503 82.3317 75.0449 82.7783C74.7396 83.2249 74.5869 83.8652 74.5869 84.6992ZM84.417 80.9326H86.167L87.7188 85.2529C87.7871 85.4489 87.8486 85.6426 87.9033 85.834C87.9626 86.0208 88.0127 86.2054 88.0537 86.3877C88.0993 86.57 88.1357 86.7523 88.1631 86.9346H88.2041C88.2497 86.6976 88.3135 86.4333 88.3955 86.1416C88.4821 85.8454 88.5778 85.5492 88.6826 85.2529L90.1729 80.9326H91.9023L88.6553 89.5391C88.4684 90.0312 88.2383 90.4505 87.9648 90.7969C87.696 91.1478 87.377 91.4121 87.0078 91.5898C86.6387 91.7721 86.2171 91.8633 85.7432 91.8633C85.5153 91.8633 85.3171 91.8496 85.1484 91.8223C84.9798 91.7995 84.8363 91.7744 84.7178 91.7471V90.4619C84.8135 90.4847 84.9342 90.5052 85.0801 90.5234C85.2259 90.5417 85.3763 90.5508 85.5312 90.5508C85.8184 90.5508 86.0667 90.4938 86.2764 90.3799C86.486 90.266 86.6637 90.1042 86.8096 89.8945C86.9554 89.6895 87.0762 89.4548 87.1719 89.1904L87.4385 88.4795L84.417 80.9326ZM99.75 84.6992C99.75 85.3281 99.668 85.8864 99.5039 86.374C99.3398 86.8617 99.1006 87.2741 98.7861 87.6113C98.4717 87.944 98.0934 88.1992 97.6514 88.377C97.2093 88.5501 96.7103 88.6367 96.1543 88.6367C95.6348 88.6367 95.1585 88.5501 94.7256 88.377C94.2926 88.1992 93.9167 87.944 93.5977 87.6113C93.2832 87.2741 93.0394 86.8617 92.8662 86.374C92.693 85.8864 92.6064 85.3281 92.6064 84.6992C92.6064 83.8652 92.75 83.1589 93.0371 82.5801C93.3288 81.9967 93.7435 81.5524 94.2812 81.2471C94.819 80.9417 95.4593 80.7891 96.2021 80.7891C96.8994 80.7891 97.5146 80.9417 98.0479 81.2471C98.5811 81.5524 98.998 81.9967 99.2988 82.5801C99.5996 83.1634 99.75 83.8698 99.75 84.6992ZM94.2607 84.6992C94.2607 85.2507 94.3268 85.7223 94.459 86.1143C94.5957 86.5062 94.8053 86.807 95.0879 87.0166C95.3704 87.2217 95.735 87.3242 96.1816 87.3242C96.6283 87.3242 96.9928 87.2217 97.2754 87.0166C97.5579 86.807 97.7653 86.5062 97.8975 86.1143C98.0296 85.7223 98.0957 85.2507 98.0957 84.6992C98.0957 84.1478 98.0296 83.6807 97.8975 83.2979C97.7653 82.9105 97.5579 82.6165 97.2754 82.416C96.9928 82.2109 96.626 82.1084 96.1748 82.1084C95.5094 82.1084 95.0241 82.3317 94.7188 82.7783C94.4134 83.2249 94.2607 83.8652 94.2607 84.6992ZM108.192 80.9326V88.5H106.928L106.709 87.4814H106.62C106.461 87.7412 106.258 87.9577 106.012 88.1309C105.766 88.2995 105.492 88.4248 105.191 88.5068C104.891 88.5934 104.574 88.6367 104.241 88.6367C103.672 88.6367 103.184 88.541 102.778 88.3496C102.377 88.1536 102.07 87.8529 101.855 87.4473C101.641 87.0417 101.534 86.5176 101.534 85.875V80.9326H103.147V85.5742C103.147 86.1621 103.266 86.6019 103.503 86.8936C103.744 87.1852 104.118 87.3311 104.624 87.3311C105.112 87.3311 105.499 87.2308 105.786 87.0303C106.073 86.8298 106.276 86.5335 106.395 86.1416C106.518 85.7497 106.579 85.2689 106.579 84.6992V80.9326H108.192ZM114.331 80.7891C114.459 80.7891 114.598 80.7959 114.748 80.8096C114.898 80.8232 115.028 80.8415 115.138 80.8643L114.987 82.3682C114.892 82.3408 114.773 82.3203 114.632 82.3066C114.495 82.293 114.372 82.2861 114.263 82.2861C113.976 82.2861 113.702 82.334 113.442 82.4297C113.183 82.5208 112.952 82.6621 112.752 82.8535C112.551 83.0404 112.394 83.2751 112.28 83.5576C112.166 83.8402 112.109 84.1683 112.109 84.542V88.5H110.496V80.9326H111.754L111.973 82.2656H112.048C112.198 81.9967 112.385 81.7507 112.608 81.5273C112.832 81.304 113.087 81.1263 113.374 80.9941C113.666 80.8574 113.985 80.7891 114.331 80.7891ZM124.059 80.7891C124.956 80.7891 125.676 81.1172 126.219 81.7734C126.766 82.4297 127.039 83.4049 127.039 84.6992C127.039 85.556 126.911 86.2783 126.656 86.8662C126.406 87.4495 126.052 87.8916 125.597 88.1924C125.146 88.4886 124.619 88.6367 124.018 88.6367C123.635 88.6367 123.302 88.5866 123.02 88.4863C122.737 88.3861 122.495 88.2562 122.295 88.0967C122.094 87.9326 121.926 87.7549 121.789 87.5635H121.693C121.716 87.7458 121.737 87.9486 121.755 88.1719C121.778 88.3906 121.789 88.5911 121.789 88.7734V91.8564H120.176V80.9326H121.488L121.714 81.9785H121.789C121.93 81.7643 122.101 81.5661 122.302 81.3838C122.507 81.2015 122.753 81.0579 123.04 80.9531C123.332 80.8438 123.671 80.7891 124.059 80.7891ZM123.628 82.1016C123.186 82.1016 122.83 82.1904 122.562 82.3682C122.297 82.5413 122.104 82.8034 121.98 83.1543C121.862 83.5052 121.798 83.945 121.789 84.4736V84.6992C121.789 85.2598 121.846 85.736 121.96 86.1279C122.078 86.5153 122.272 86.8115 122.541 87.0166C122.814 87.2171 123.184 87.3174 123.648 87.3174C124.04 87.3174 124.364 87.2103 124.619 86.9961C124.879 86.7819 125.073 86.4766 125.2 86.0801C125.328 85.6836 125.392 85.2165 125.392 84.6787C125.392 83.863 125.246 83.2295 124.954 82.7783C124.667 82.3271 124.225 82.1016 123.628 82.1016ZM132.733 80.7891C132.861 80.7891 133 80.7959 133.15 80.8096C133.301 80.8232 133.431 80.8415 133.54 80.8643L133.39 82.3682C133.294 82.3408 133.175 82.3203 133.034 82.3066C132.897 82.293 132.774 82.2861 132.665 82.2861C132.378 82.2861 132.104 82.334 131.845 82.4297C131.585 82.5208 131.355 82.6621 131.154 82.8535C130.954 83.0404 130.797 83.2751 130.683 83.5576C130.569 83.8402 130.512 84.1683 130.512 84.542V88.5H128.898V80.9326H130.156L130.375 82.2656H130.45C130.601 81.9967 130.787 81.7507 131.011 81.5273C131.234 81.304 131.489 81.1263 131.776 80.9941C132.068 80.8574 132.387 80.7891 132.733 80.7891ZM141.641 84.6992C141.641 85.3281 141.559 85.8864 141.395 86.374C141.23 86.8617 140.991 87.2741 140.677 87.6113C140.362 87.944 139.984 88.1992 139.542 88.377C139.1 88.5501 138.601 88.6367 138.045 88.6367C137.525 88.6367 137.049 88.5501 136.616 88.377C136.183 88.1992 135.807 87.944 135.488 87.6113C135.174 87.2741 134.93 86.8617 134.757 86.374C134.584 85.8864 134.497 85.3281 134.497 84.6992C134.497 83.8652 134.641 83.1589 134.928 82.5801C135.219 81.9967 135.634 81.5524 136.172 81.2471C136.71 80.9417 137.35 80.7891 138.093 80.7891C138.79 80.7891 139.405 80.9417 139.938 81.2471C140.472 81.5524 140.889 81.9967 141.189 82.5801C141.49 83.1634 141.641 83.8698 141.641 84.6992ZM136.151 84.6992C136.151 85.2507 136.217 85.7223 136.35 86.1143C136.486 86.5062 136.696 86.807 136.979 87.0166C137.261 87.2217 137.626 87.3242 138.072 87.3242C138.519 87.3242 138.883 87.2217 139.166 87.0166C139.449 86.807 139.656 86.5062 139.788 86.1143C139.92 85.7223 139.986 85.2507 139.986 84.6992C139.986 84.1478 139.92 83.6807 139.788 83.2979C139.656 82.9105 139.449 82.6165 139.166 82.416C138.883 82.2109 138.517 82.1084 138.065 82.1084C137.4 82.1084 136.915 82.3317 136.609 82.7783C136.304 83.2249 136.151 83.8652 136.151 84.6992ZM146.029 88.6367C145.127 88.6367 144.402 88.3086 143.855 87.6523C143.313 86.9915 143.042 86.0186 143.042 84.7334C143.042 83.4346 143.318 82.4525 143.869 81.7871C144.425 81.1217 145.157 80.7891 146.063 80.7891C146.446 80.7891 146.781 80.8415 147.068 80.9463C147.355 81.0465 147.602 81.1833 147.807 81.3564C148.016 81.5296 148.194 81.7233 148.34 81.9375H148.415C148.392 81.7962 148.365 81.5934 148.333 81.3291C148.306 81.0602 148.292 80.8118 148.292 80.584V77.8633H149.905V88.5H148.647L148.36 87.4678H148.292C148.155 87.6865 147.982 87.8848 147.772 88.0625C147.567 88.2357 147.321 88.3747 147.034 88.4795C146.752 88.5843 146.417 88.6367 146.029 88.6367ZM146.48 87.3311C147.169 87.3311 147.654 87.1328 147.937 86.7363C148.219 86.3398 148.365 85.7451 148.374 84.9521V84.7402C148.374 83.8926 148.237 83.2432 147.964 82.792C147.69 82.3363 147.191 82.1084 146.467 82.1084C145.888 82.1084 145.446 82.3431 145.141 82.8125C144.84 83.2773 144.689 83.9268 144.689 84.7607C144.689 85.5947 144.84 86.2327 145.141 86.6748C145.446 87.1123 145.893 87.3311 146.48 87.3311ZM158.806 80.9326V88.5H157.541L157.322 87.4814H157.233C157.074 87.7412 156.871 87.9577 156.625 88.1309C156.379 88.2995 156.105 88.4248 155.805 88.5068C155.504 88.5934 155.187 88.6367 154.854 88.6367C154.285 88.6367 153.797 88.541 153.392 88.3496C152.991 88.1536 152.683 87.8529 152.469 87.4473C152.255 87.0417 152.147 86.5176 152.147 85.875V80.9326H153.761V85.5742C153.761 86.1621 153.879 86.6019 154.116 86.8936C154.358 87.1852 154.731 87.3311 155.237 87.3311C155.725 87.3311 156.112 87.2308 156.399 87.0303C156.687 86.8298 156.889 86.5335 157.008 86.1416C157.131 85.7497 157.192 85.2689 157.192 84.6992V80.9326H158.806ZM164.158 88.6367C163.443 88.6367 162.823 88.4977 162.299 88.2197C161.775 87.9417 161.371 87.5156 161.089 86.9414C160.806 86.3672 160.665 85.638 160.665 84.7539C160.665 83.8333 160.82 83.0814 161.13 82.498C161.44 81.9147 161.868 81.484 162.415 81.2061C162.966 80.9281 163.598 80.7891 164.309 80.7891C164.76 80.7891 165.168 80.8346 165.532 80.9258C165.901 81.0124 166.214 81.1195 166.469 81.2471L165.99 82.5322C165.712 82.4183 165.427 82.3226 165.136 82.2451C164.844 82.1676 164.564 82.1289 164.295 82.1289C163.853 82.1289 163.484 82.2269 163.188 82.4229C162.896 82.6188 162.677 82.9105 162.531 83.2979C162.39 83.6852 162.319 84.166 162.319 84.7402C162.319 85.2962 162.392 85.7656 162.538 86.1484C162.684 86.5267 162.9 86.8138 163.188 87.0098C163.475 87.2012 163.828 87.2969 164.247 87.2969C164.662 87.2969 165.033 87.2467 165.361 87.1465C165.689 87.0462 165.999 86.9163 166.291 86.7568V88.1514C166.004 88.3154 165.696 88.4362 165.368 88.5137C165.04 88.5957 164.637 88.6367 164.158 88.6367ZM170.885 87.3379C171.094 87.3379 171.302 87.3197 171.507 87.2832C171.712 87.2422 171.899 87.1943 172.067 87.1396V88.3564C171.89 88.4339 171.66 88.5 171.377 88.5547C171.094 88.6094 170.8 88.6367 170.495 88.6367C170.067 88.6367 169.682 88.5661 169.34 88.4248C168.998 88.279 168.727 88.0306 168.526 87.6797C168.326 87.3288 168.226 86.8434 168.226 86.2236V82.1562H167.193V81.4385L168.301 80.8711L168.827 79.251H169.839V80.9326H172.006V82.1562H169.839V86.2031C169.839 86.5859 169.935 86.8708 170.126 87.0576C170.317 87.2445 170.57 87.3379 170.885 87.3379ZM174.945 78.5059L174.672 82.1152H173.64L173.373 78.5059H174.945ZM182.096 86.3398C182.096 86.8366 181.975 87.2559 181.733 87.5977C181.492 87.9395 181.139 88.1992 180.674 88.377C180.214 88.5501 179.648 88.6367 178.979 88.6367C178.45 88.6367 177.994 88.598 177.611 88.5205C177.233 88.4476 176.875 88.3337 176.538 88.1787V86.791C176.898 86.9596 177.301 87.1055 177.748 87.2285C178.199 87.3516 178.625 87.4131 179.026 87.4131C179.555 87.4131 179.936 87.3311 180.168 87.167C180.4 86.9984 180.517 86.7751 180.517 86.4971C180.517 86.333 180.469 86.1872 180.373 86.0596C180.282 85.9274 180.109 85.793 179.854 85.6562C179.603 85.515 179.234 85.3464 178.746 85.1504C178.268 84.959 177.864 84.7676 177.536 84.5762C177.208 84.3848 176.96 84.1546 176.791 83.8857C176.622 83.6123 176.538 83.2637 176.538 82.8398C176.538 82.1699 176.802 81.6618 177.331 81.3154C177.864 80.9645 178.568 80.7891 179.443 80.7891C179.908 80.7891 180.346 80.8369 180.756 80.9326C181.171 81.0238 181.576 81.1582 181.973 81.3359L181.467 82.5459C181.125 82.3955 180.781 82.2725 180.435 82.1768C180.093 82.0765 179.744 82.0264 179.389 82.0264C178.974 82.0264 178.657 82.0902 178.438 82.2178C178.224 82.3454 178.117 82.5277 178.117 82.7646C178.117 82.9424 178.17 83.0928 178.274 83.2158C178.379 83.3389 178.559 83.4619 178.814 83.585C179.074 83.708 179.434 83.8607 179.895 84.043C180.346 84.2161 180.735 84.3984 181.063 84.5898C181.396 84.7767 181.651 85.0068 181.829 85.2803C182.007 85.5537 182.096 85.9069 182.096 86.3398ZM189.075 77.8633V83.0039C189.075 83.2363 189.066 83.4915 189.048 83.7695C189.03 84.043 189.011 84.3005 188.993 84.542H189.027C189.146 84.3825 189.287 84.1956 189.451 83.9814C189.62 83.7673 189.779 83.5804 189.93 83.4209L192.24 80.9326H194.086L191.058 84.1865L194.284 88.5H192.397L189.978 85.1777L189.075 85.9502V88.5H187.469V77.8633H189.075ZM198.509 80.7891C199.183 80.7891 199.762 80.9281 200.245 81.2061C200.728 81.484 201.1 81.8783 201.359 82.3887C201.619 82.8991 201.749 83.5098 201.749 84.2207V85.082H196.697C196.715 85.8158 196.911 86.3809 197.285 86.7773C197.663 87.1738 198.192 87.3721 198.871 87.3721C199.354 87.3721 199.787 87.3265 200.17 87.2354C200.557 87.1396 200.956 87.0007 201.366 86.8184V88.124C200.988 88.3018 200.603 88.4316 200.211 88.5137C199.819 88.5957 199.35 88.6367 198.803 88.6367C198.06 88.6367 197.406 88.4932 196.841 88.2061C196.28 87.9144 195.84 87.4814 195.521 86.9072C195.207 86.333 195.05 85.6198 195.05 84.7676C195.05 83.9199 195.193 83.1999 195.48 82.6074C195.768 82.015 196.171 81.5638 196.69 81.2539C197.21 80.944 197.816 80.7891 198.509 80.7891ZM198.509 81.999C198.003 81.999 197.593 82.1631 197.278 82.4912C196.968 82.8193 196.786 83.3001 196.731 83.9336H200.177C200.172 83.5553 200.108 83.2204 199.985 82.9287C199.867 82.637 199.685 82.4092 199.438 82.2451C199.197 82.0811 198.887 81.999 198.509 81.999ZM202.419 80.9326H204.169L205.721 85.2529C205.789 85.4489 205.851 85.6426 205.905 85.834C205.965 86.0208 206.015 86.2054 206.056 86.3877C206.101 86.57 206.138 86.7523 206.165 86.9346H206.206C206.252 86.6976 206.315 86.4333 206.397 86.1416C206.484 85.8454 206.58 85.5492 206.685 85.2529L208.175 80.9326H209.904L206.657 89.5391C206.47 90.0312 206.24 90.4505 205.967 90.7969C205.698 91.1478 205.379 91.4121 205.01 91.5898C204.641 91.7721 204.219 91.8633 203.745 91.8633C203.517 91.8633 203.319 91.8496 203.15 91.8223C202.982 91.7995 202.838 91.7744 202.72 91.7471V90.4619C202.815 90.4847 202.936 90.5052 203.082 90.5234C203.228 90.5417 203.378 90.5508 203.533 90.5508C203.82 90.5508 204.069 90.4938 204.278 90.3799C204.488 90.266 204.666 90.1042 204.812 89.8945C204.957 89.6895 205.078 89.4548 205.174 89.1904L205.44 88.4795L202.419 80.9326ZM3.69141 107.637C2.78906 107.637 2.06445 107.309 1.51758 106.652C0.97526 105.992 0.704102 105.019 0.704102 103.733C0.704102 102.435 0.979818 101.452 1.53125 100.787C2.08724 100.122 2.81868 99.7891 3.72559 99.7891C4.1084 99.7891 4.44336 99.8415 4.73047 99.9463C5.01758 100.047 5.26367 100.183 5.46875 100.356C5.67839 100.53 5.85612 100.723 6.00195 100.938H6.07715C6.05436 100.796 6.02702 100.593 5.99512 100.329C5.96777 100.06 5.9541 99.8118 5.9541 99.584V96.8633H7.56738V107.5H6.30957L6.02246 106.468H5.9541C5.81738 106.687 5.64421 106.885 5.43457 107.062C5.22949 107.236 4.9834 107.375 4.69629 107.479C4.41374 107.584 4.07878 107.637 3.69141 107.637ZM4.14258 106.331C4.83073 106.331 5.31608 106.133 5.59863 105.736C5.88118 105.34 6.02702 104.745 6.03613 103.952V103.74C6.03613 102.893 5.89941 102.243 5.62598 101.792C5.35254 101.336 4.85352 101.108 4.12891 101.108C3.55013 101.108 3.10807 101.343 2.80273 101.812C2.50195 102.277 2.35156 102.927 2.35156 103.761C2.35156 104.595 2.50195 105.233 2.80273 105.675C3.10807 106.112 3.55469 106.331 4.14258 106.331ZM11.4775 99.9326V107.5H9.87109V99.9326H11.4775ZM10.6846 97.0342C10.9307 97.0342 11.1426 97.1003 11.3203 97.2324C11.5026 97.3646 11.5938 97.5924 11.5938 97.916C11.5938 98.235 11.5026 98.4629 11.3203 98.5996C11.1426 98.7318 10.9307 98.7979 10.6846 98.7979C10.4294 98.7979 10.2129 98.7318 10.0352 98.5996C9.86198 98.4629 9.77539 98.235 9.77539 97.916C9.77539 97.5924 9.86198 97.3646 10.0352 97.2324C10.2129 97.1003 10.4294 97.0342 10.6846 97.0342ZM17.5615 101.156H15.7227V107.5H14.1162V101.156H12.8789V100.384L14.1162 99.9121V99.3857C14.1162 98.7432 14.2165 98.2327 14.417 97.8545C14.6221 97.4762 14.9137 97.2051 15.292 97.041C15.6748 96.8724 16.1305 96.7881 16.6592 96.7881C17.0055 96.7881 17.3223 96.8177 17.6094 96.877C17.8965 96.9316 18.138 96.9954 18.334 97.0684L17.917 98.2852C17.762 98.235 17.5889 98.1895 17.3975 98.1484C17.2061 98.1029 17.001 98.0801 16.7822 98.0801C16.4176 98.0801 16.1488 98.194 15.9756 98.4219C15.807 98.6497 15.7227 98.9824 15.7227 99.4199V99.9326H17.5615V101.156ZM22.627 101.156H20.7881V107.5H19.1816V101.156H17.9443V100.384L19.1816 99.9121V99.3857C19.1816 98.7432 19.2819 98.2327 19.4824 97.8545C19.6875 97.4762 19.9792 97.2051 20.3574 97.041C20.7402 96.8724 21.196 96.7881 21.7246 96.7881C22.071 96.7881 22.3877 96.8177 22.6748 96.877C22.9619 96.9316 23.2035 96.9954 23.3994 97.0684L22.9824 98.2852C22.8275 98.235 22.6543 98.1895 22.4629 98.1484C22.2715 98.1029 22.0664 98.0801 21.8477 98.0801C21.4831 98.0801 21.2142 98.194 21.041 98.4219C20.8724 98.6497 20.7881 98.9824 20.7881 99.4199V99.9326H22.627V101.156ZM26.9268 99.7891C27.6012 99.7891 28.18 99.9281 28.6631 100.206C29.1462 100.484 29.5176 100.878 29.7773 101.389C30.0371 101.899 30.167 102.51 30.167 103.221V104.082H25.1152C25.1335 104.816 25.3294 105.381 25.7031 105.777C26.0814 106.174 26.61 106.372 27.2891 106.372C27.7721 106.372 28.2051 106.326 28.5879 106.235C28.9753 106.14 29.374 106.001 29.7842 105.818V107.124C29.4059 107.302 29.0208 107.432 28.6289 107.514C28.237 107.596 27.7676 107.637 27.2207 107.637C26.4779 107.637 25.8239 107.493 25.2588 107.206C24.6982 106.914 24.2585 106.481 23.9395 105.907C23.625 105.333 23.4678 104.62 23.4678 103.768C23.4678 102.92 23.6113 102.2 23.8984 101.607C24.1855 101.015 24.5889 100.564 25.1084 100.254C25.6279 99.944 26.234 99.7891 26.9268 99.7891ZM26.9268 100.999C26.4209 100.999 26.0107 101.163 25.6963 101.491C25.3864 101.819 25.2041 102.3 25.1494 102.934H28.5947C28.5902 102.555 28.5264 102.22 28.4033 101.929C28.2848 101.637 28.1025 101.409 27.8564 101.245C27.6149 101.081 27.305 100.999 26.9268 100.999ZM35.9229 99.7891C36.7751 99.7891 37.4382 100.01 37.9121 100.452C38.3906 100.89 38.6299 101.594 38.6299 102.564V107.5H37.0234V102.865C37.0234 102.277 36.9027 101.838 36.6611 101.546C36.4196 101.25 36.0459 101.102 35.54 101.102C34.8063 101.102 34.2959 101.327 34.0088 101.778C33.7262 102.229 33.585 102.883 33.585 103.74V107.5H31.9785V99.9326H33.2295L33.4551 100.958H33.5439C33.708 100.694 33.9108 100.477 34.1523 100.309C34.3984 100.135 34.6719 100.006 34.9727 99.9189C35.278 99.8324 35.5947 99.7891 35.9229 99.7891ZM43.6953 106.338C43.9049 106.338 44.1123 106.32 44.3174 106.283C44.5225 106.242 44.7093 106.194 44.8779 106.14V107.356C44.7002 107.434 44.4701 107.5 44.1875 107.555C43.9049 107.609 43.611 107.637 43.3057 107.637C42.8773 107.637 42.4922 107.566 42.1504 107.425C41.8086 107.279 41.5374 107.031 41.3369 106.68C41.1364 106.329 41.0361 105.843 41.0361 105.224V101.156H40.0039V100.438L41.1113 99.8711L41.6377 98.251H42.6494V99.9326H44.8164V101.156H42.6494V105.203C42.6494 105.586 42.7451 105.871 42.9365 106.058C43.1279 106.244 43.3809 106.338 43.6953 106.338ZM48.0225 99.9326V107.5H46.416V99.9326H48.0225ZM47.2295 97.0342C47.4756 97.0342 47.6875 97.1003 47.8652 97.2324C48.0475 97.3646 48.1387 97.5924 48.1387 97.916C48.1387 98.235 48.0475 98.4629 47.8652 98.5996C47.6875 98.7318 47.4756 98.7979 47.2295 98.7979C46.9743 98.7979 46.7578 98.7318 46.5801 98.5996C46.4069 98.4629 46.3203 98.235 46.3203 97.916C46.3203 97.5924 46.4069 97.3646 46.5801 97.2324C46.7578 97.1003 46.9743 97.0342 47.2295 97.0342ZM53.293 99.7891C54.25 99.7891 54.9723 100.001 55.46 100.425C55.9521 100.849 56.1982 101.509 56.1982 102.407V107.5H55.0566L54.749 106.427H54.6943C54.4801 106.7 54.2591 106.926 54.0312 107.104C53.8034 107.281 53.5391 107.413 53.2383 107.5C52.9421 107.591 52.5798 107.637 52.1514 107.637C51.7002 107.637 51.2969 107.555 50.9414 107.391C50.5859 107.222 50.3057 106.967 50.1006 106.625C49.8955 106.283 49.793 105.85 49.793 105.326C49.793 104.547 50.0824 103.961 50.6611 103.569C51.2445 103.177 52.124 102.961 53.2998 102.92L54.6123 102.872V102.476C54.6123 101.951 54.4893 101.578 54.2432 101.354C54.0016 101.131 53.6598 101.02 53.2178 101.02C52.8395 101.02 52.4727 101.074 52.1172 101.184C51.7617 101.293 51.4154 101.427 51.0781 101.587L50.5586 100.452C50.9277 100.256 51.347 100.097 51.8164 99.9736C52.2904 99.8506 52.7826 99.7891 53.293 99.7891ZM54.6055 103.884L53.6279 103.918C52.8258 103.945 52.263 104.082 51.9395 104.328C51.6159 104.574 51.4541 104.911 51.4541 105.34C51.4541 105.714 51.5658 105.987 51.7891 106.16C52.0124 106.329 52.3063 106.413 52.6709 106.413C53.2269 106.413 53.6872 106.256 54.0518 105.941C54.4209 105.622 54.6055 105.155 54.6055 104.54V103.884ZM61.2637 106.338C61.4733 106.338 61.6807 106.32 61.8857 106.283C62.0908 106.242 62.2777 106.194 62.4463 106.14V107.356C62.2686 107.434 62.0384 107.5 61.7559 107.555C61.4733 107.609 61.1794 107.637 60.874 107.637C60.4456 107.637 60.0605 107.566 59.7188 107.425C59.377 107.279 59.1058 107.031 58.9053 106.68C58.7048 106.329 58.6045 105.843 58.6045 105.224V101.156H57.5723V100.438L58.6797 99.8711L59.2061 98.251H60.2178V99.9326H62.3848V101.156H60.2178V105.203C60.2178 105.586 60.3135 105.871 60.5049 106.058C60.6963 106.244 60.9492 106.338 61.2637 106.338ZM70.6836 103.699C70.6836 104.328 70.6016 104.886 70.4375 105.374C70.2734 105.862 70.0342 106.274 69.7197 106.611C69.4053 106.944 69.027 107.199 68.585 107.377C68.1429 107.55 67.6439 107.637 67.0879 107.637C66.5684 107.637 66.0921 107.55 65.6592 107.377C65.2262 107.199 64.8503 106.944 64.5312 106.611C64.2168 106.274 63.973 105.862 63.7998 105.374C63.6266 104.886 63.54 104.328 63.54 103.699C63.54 102.865 63.6836 102.159 63.9707 101.58C64.2624 100.997 64.6771 100.552 65.2148 100.247C65.7526 99.9417 66.3929 99.7891 67.1357 99.7891C67.833 99.7891 68.4482 99.9417 68.9814 100.247C69.5146 100.552 69.9316 100.997 70.2324 101.58C70.5332 102.163 70.6836 102.87 70.6836 103.699ZM65.1943 103.699C65.1943 104.251 65.2604 104.722 65.3926 105.114C65.5293 105.506 65.7389 105.807 66.0215 106.017C66.304 106.222 66.6686 106.324 67.1152 106.324C67.5618 106.324 67.9264 106.222 68.209 106.017C68.4915 105.807 68.6989 105.506 68.8311 105.114C68.9632 104.722 69.0293 104.251 69.0293 103.699C69.0293 103.148 68.9632 102.681 68.8311 102.298C68.6989 101.91 68.4915 101.617 68.209 101.416C67.9264 101.211 67.5596 101.108 67.1084 101.108C66.443 101.108 65.9577 101.332 65.6523 101.778C65.347 102.225 65.1943 102.865 65.1943 103.699ZM76.3643 99.7891C76.4919 99.7891 76.6309 99.7959 76.7812 99.8096C76.9316 99.8232 77.0615 99.8415 77.1709 99.8643L77.0205 101.368C76.9248 101.341 76.8063 101.32 76.665 101.307C76.5283 101.293 76.4053 101.286 76.2959 101.286C76.0088 101.286 75.7354 101.334 75.4756 101.43C75.2158 101.521 74.9857 101.662 74.7852 101.854C74.5846 102.04 74.4274 102.275 74.3135 102.558C74.1995 102.84 74.1426 103.168 74.1426 103.542V107.5H72.5293V99.9326H73.7871L74.0059 101.266H74.0811C74.2314 100.997 74.4183 100.751 74.6416 100.527C74.8649 100.304 75.1201 100.126 75.4072 99.9941C75.6989 99.8574 76.0179 99.7891 76.3643 99.7891ZM78.3398 106.652C78.3398 106.279 78.4355 106.017 78.627 105.866C78.8229 105.711 79.0599 105.634 79.3379 105.634C79.6159 105.634 79.8529 105.711 80.0488 105.866C80.2493 106.017 80.3496 106.279 80.3496 106.652C80.3496 107.017 80.2493 107.281 80.0488 107.445C79.8529 107.605 79.6159 107.685 79.3379 107.685C79.0599 107.685 78.8229 107.605 78.627 107.445C78.4355 107.281 78.3398 107.017 78.3398 106.652Z" fill="#2E2E2E"/>
</svg>
