<svg width="83" height="32" viewBox="0 0 83 32" fill="none" xmlns="http://www.w3.org/2000/svg">
<rect x="0.5" y="0.5" width="82" height="31" rx="3.5" fill="#F6F6F6" fill-opacity="0.4"/>
<rect x="0.5" y="0.5" width="82" height="31" rx="3.5" stroke="white"/>
<path d="M14.9395 21H13.3125V11.0059H18.959V12.3867H14.9395V15.5039H18.6992V16.8779H14.9395V21ZM22.2197 13.4326V21H20.6133V13.4326H22.2197ZM21.4268 10.5342C21.6729 10.5342 21.8848 10.6003 22.0625 10.7324C22.2448 10.8646 22.3359 11.0924 22.3359 11.416C22.3359 11.735 22.2448 11.9629 22.0625 12.0996C21.8848 12.2318 21.6729 12.2979 21.4268 12.2979C21.1715 12.2979 20.9551 12.2318 20.7773 12.0996C20.6042 11.9629 20.5176 11.735 20.5176 11.416C20.5176 11.0924 20.6042 10.8646 20.7773 10.7324C20.9551 10.6003 21.1715 10.5342 21.4268 10.5342ZM26.1367 21H24.5234V10.3633H26.1367V21ZM31.25 19.8379C31.4596 19.8379 31.667 19.8197 31.8721 19.7832C32.0771 19.7422 32.264 19.6943 32.4326 19.6396V20.8564C32.2549 20.9339 32.0247 21 31.7422 21.0547C31.4596 21.1094 31.1657 21.1367 30.8604 21.1367C30.432 21.1367 30.0469 21.0661 29.7051 20.9248C29.3633 20.779 29.0921 20.5306 28.8916 20.1797C28.6911 19.8288 28.5908 19.3434 28.5908 18.7236V14.6562H27.5586V13.9385L28.666 13.3711L29.1924 11.751H30.2041V13.4326H32.3711V14.6562H30.2041V18.7031C30.2041 19.0859 30.2998 19.3708 30.4912 19.5576C30.6826 19.7445 30.9355 19.8379 31.25 19.8379ZM36.9854 13.2891C37.6598 13.2891 38.2386 13.4281 38.7217 13.7061C39.2048 13.984 39.5762 14.3783 39.8359 14.8887C40.0957 15.3991 40.2256 16.0098 40.2256 16.7207V17.582H35.1738C35.1921 18.3158 35.388 18.8809 35.7617 19.2773C36.14 19.6738 36.6686 19.8721 37.3477 19.8721C37.8307 19.8721 38.2637 19.8265 38.6465 19.7354C39.0339 19.6396 39.4326 19.5007 39.8428 19.3184V20.624C39.4645 20.8018 39.0794 20.9316 38.6875 21.0137C38.2956 21.0957 37.8262 21.1367 37.2793 21.1367C36.5365 21.1367 35.8825 20.9932 35.3174 20.7061C34.7568 20.4144 34.3171 19.9814 33.998 19.4072C33.6836 18.833 33.5264 18.1198 33.5264 17.2676C33.5264 16.4199 33.6699 15.6999 33.957 15.1074C34.2441 14.515 34.6475 14.0638 35.167 13.7539C35.6865 13.444 36.2926 13.2891 36.9854 13.2891ZM36.9854 14.499C36.4795 14.499 36.0693 14.6631 35.7549 14.9912C35.445 15.3193 35.2627 15.8001 35.208 16.4336H38.6533C38.6488 16.0553 38.585 15.7204 38.4619 15.4287C38.3434 15.137 38.1611 14.9092 37.915 14.7451C37.6735 14.5811 37.3636 14.499 36.9854 14.499ZM45.8721 13.2891C45.9997 13.2891 46.1387 13.2959 46.2891 13.3096C46.4395 13.3232 46.5693 13.3415 46.6787 13.3643L46.5283 14.8682C46.4326 14.8408 46.3141 14.8203 46.1729 14.8066C46.0361 14.793 45.9131 14.7861 45.8037 14.7861C45.5166 14.7861 45.2432 14.834 44.9834 14.9297C44.7236 15.0208 44.4935 15.1621 44.293 15.3535C44.0924 15.5404 43.9352 15.7751 43.8213 16.0576C43.7074 16.3402 43.6504 16.6683 43.6504 17.042V21H42.0371V13.4326H43.2949L43.5137 14.7656H43.5889C43.7393 14.4967 43.9261 14.2507 44.1494 14.0273C44.3727 13.804 44.6279 13.6263 44.915 13.4941C45.2067 13.3574 45.5257 13.2891 45.8721 13.2891Z" fill="#2E2E2E"/>
<path d="M64.3334 17.3333V21.3333L61.6667 22.6667V17.3333L57.6667 11.3333V10H68.3334V11.3333L64.3334 17.3333ZM59.2692 11.3333L63.0001 16.9296L66.7309 11.3333H59.2692Z" fill="#2E2E2E"/>
</svg>
