<svg width="158" height="126" viewBox="0 0 158 126" fill="none" xmlns="http://www.w3.org/2000/svg">
<path d="M113.171 19.099C112.657 19.3678 112.085 19.4734 111.529 19.3563C110.871 19.2501 110.566 19.0468 110.508 19.1328C110.458 19.1841 110.688 19.5472 111.448 19.7574C112.094 19.8975 112.791 19.7634 113.356 19.4641C114.005 19.0741 114.217 18.7675 114.173 18.7056C114.115 18.6219 113.795 18.8088 113.171 19.099Z" fill="#2C328B"/>
<path d="M110.957 17.1879C110.959 17.1399 110.852 17.1031 110.663 17.0264C110.543 16.9763 110.249 16.8435 110.176 16.7383C110.152 16.6914 110.157 16.707 110.176 16.6363C110.316 16.1689 110.771 15.9671 111.08 14.6257C111.227 13.7439 111.171 13.3114 111.092 13.2992C110.995 13.2839 110.892 13.7152 110.681 14.5333C110.395 15.7737 109.995 15.897 109.782 16.5242C109.729 16.6612 109.783 16.9021 109.896 16.9913C110.225 17.3155 110.955 17.3113 110.957 17.1879Z" fill="#2C328B"/>
<path d="M110.65 9.6887C111.106 9.84746 111.122 9.99404 111.215 10.0266C111.319 10.0556 111.441 9.65507 110.829 9.32099C110.424 9.12205 109.94 9.00258 109.459 9.10691C108.896 9.28304 108.784 9.61764 108.848 9.65521C108.976 9.77955 109.613 9.17855 110.65 9.6887Z" fill="#2C328B"/>
<path d="M114.234 10.7812C113.563 10.7986 113.299 11.0644 113.336 11.126C113.405 11.2984 114.455 10.9061 115.544 11.651C116.019 11.9346 116.122 12.2021 116.218 12.1764C116.258 12.1654 116.286 12.0746 116.235 11.9096C116.031 11.2317 114.954 10.8177 114.234 10.7812Z" fill="#2C328B"/>
<path d="M109.359 12.3927C109.046 12.3267 108.707 12.6792 108.601 13.1801C108.495 13.6811 108.663 14.1406 108.975 14.2066C109.288 14.2727 109.628 13.9202 109.734 13.4192C109.84 12.9183 109.672 12.4588 109.359 12.3927Z" fill="#2C328B"/>
<path d="M114.247 13.4661C113.952 13.3433 113.553 13.6269 113.356 14.0995C113.159 14.5721 113.238 15.0548 113.533 15.1776C113.828 15.3004 114.227 15.0168 114.424 14.5442C114.621 14.0716 114.542 13.5889 114.247 13.4661Z" fill="#2C328B"/>
<path d="M123.002 18.509C123.674 18.2435 124.021 17.3947 123.651 16.7315C123.348 16.3399 122.949 16.39 122.772 16.4537C122.575 16.532 122.528 16.6373 122.55 16.6615C122.574 16.6945 122.659 16.6592 122.815 16.6537C123.715 16.6218 123.611 17.9317 122.876 18.1896C122.354 18.4204 121.956 18.1721 121.905 18.2506C121.886 18.2788 122.343 18.7307 123.002 18.509Z" fill="#2C328B"/>
<path d="M140.057 70.654H146.386C147.339 70.654 148.114 69.8407 148.114 68.8412V66.9436C148.114 66.4809 147.942 66.0627 147.667 65.7427H149.842C150.84 65.7427 151.653 64.9303 151.653 63.9317V62.0355C151.653 61.0372 150.84 60.2252 149.842 60.2252H142.502C143.644 57.2538 143.551 53.188 143.184 50.0174C145.877 48.2934 153.281 42.5713 150.877 35.7008C148.004 27.507 142.406 29.6908 141.043 26.485C139.674 23.2732 140.769 19.1123 136.467 18.1573C132.164 17.2023 128.41 19.5929 127.996 14.1668C127.588 8.73465 126.152 -2.45815 114.201 2.04329C114.201 2.04329 109.107 -1.4362 106.326 5.59581C103.551 12.6278 105.736 14.6048 102.663 18.7717C100.136 22.1936 99.9672 27.8252 101.466 31.843C98.3054 35.0439 96.1568 39.3953 95.3839 43.3447L95.3287 43.6405C95.3099 43.7457 95.3477 43.8529 95.4282 43.9233C95.6718 44.1357 95.919 44.3413 96.1636 44.5446C96.0761 45.0721 95.8154 46.5694 95.5476 47.0355C94.8855 46.8282 92.3395 45.5611 87.9836 43.2709L84.3466 30.532C84.3092 30.4013 84.1897 30.3113 84.0539 30.3113H82.0428C82.037 30.3109 82.0328 30.3059 82.0269 30.3059H48.9659C48.7643 30.3059 48.6179 30.4992 48.6733 30.6935L56.5473 58.2644V60.2252H35.3945C35.5287 59.9109 35.4529 59.7377 35.4749 58.574C37.8733 58.0674 39.6739 55.9416 39.6739 53.3965C39.6739 50.8513 37.8733 48.7311 35.4749 48.225V46.4617C35.4749 45.9202 35.0517 45.4821 34.5015 45.4642H21.8985C21.3482 45.4642 20.9007 45.9116 20.9007 46.4617C20.9303 60.5322 20.8291 59.868 20.9806 60.2252H7.1669C6.16081 60.2252 5.3422 61.0372 5.3422 62.0355V63.9317C5.3422 64.9303 6.16081 65.7427 7.1669 65.7427H9.33201C9.05552 66.0627 8.88226 66.4809 8.88226 66.9436V68.8412C8.88226 69.8407 9.66283 70.654 10.6226 70.654H16.9393L0.0211244 124.906C-0.0629645 125.207 0.113236 125.543 0.385708 125.644C0.566304 125.733 0.521118 125.69 2.97939 125.7C3.24295 125.7 3.4765 125.53 3.56207 125.273L12.6538 96.1116H38.8295L47.9227 125.279C48.0065 125.53 48.24 125.7 48.5036 125.7C51.4488 125.688 50.7495 125.734 51.1035 125.642C51.39 125.532 51.5474 125.21 51.4595 124.897L34.5437 70.654H87.5224C85.6234 71.3651 82.7585 72.6349 82.0227 74.049C77.4101 82.8999 78.5845 112.871 79.2296 114.611C79.4146 115.109 80.2696 115.411 81.4167 115.586C81.402 115.689 81.42 116.218 81.4253 116.809C79.1756 115.93 77.3344 119.261 75.8818 120.281C74.2428 121.443 71.6439 120.715 70.3611 121.592C69.5998 122.111 69.4836 123.215 70.0351 124.701C70.1956 125.123 70.5914 125.396 71.0436 125.396H80.8469H99.4862C100.011 125.396 100.46 125.022 100.553 124.507L100.553 124.502C100.743 123.339 101.007 118.227 99.942 117.388C99.4614 117.011 98.9703 116.932 98.4766 117.147C98.4712 116.663 98.4631 116.127 98.4458 115.549C99.3799 115.448 100.067 115.326 100.303 115.201C100.57 115.056 101.132 114.746 103.407 93.8305H113.622V98.9699L105.538 124.895C105.421 125.258 105.705 125.7 106.15 125.7H108.493C108.756 125.7 108.99 125.53 109.075 125.273L109.163 124.992C109.355 125.215 109.631 125.359 109.941 125.359H121.229C121.816 125.359 122.276 124.881 122.276 124.27V121.077C122.276 120.486 121.806 120.006 121.229 120.006H117.554V98.0779L118.167 96.1116H144.342L153.436 125.279C153.52 125.53 153.753 125.7 154.017 125.7C156.324 125.686 156.394 125.728 156.545 125.666L156.58 125.655C156.899 125.555 157.07 125.215 156.973 124.897L140.057 70.654ZM141.848 60.2252H121.098C104.02 55.9051 105.789 57.1536 104.101 57.3096C101.408 57.622 97.7379 54.658 96.5279 56.9523C96.1915 57.5855 95.7862 57.8983 95.296 57.8772C94.3315 57.8383 93.1831 56.5415 92.2991 54.4932C91.223 51.9891 100.504 52.8791 103.21 53.2561C138.863 51.3178 128.688 51.8211 132.847 51.7662C136.088 51.7544 139.648 51.3358 142.555 49.8736C142.568 49.9763 142.582 50.0966 142.597 50.2327C142.828 52.1688 143.205 56.9609 141.848 60.2252ZM102.263 57.8882H96.615C96.7709 57.719 96.923 57.5056 97.0657 57.2368C97.7544 55.9298 100.024 57.2862 102.347 57.78C102.319 57.8169 102.291 57.8525 102.263 57.8882ZM93.6886 57.7037C93.7551 57.7645 93.8209 57.8342 93.8879 57.8882H92.1569L91.7135 56.3351C92.1874 56.6909 93.3205 57.5028 93.6886 57.7037ZM108.05 57.8882H104.426L104.426 57.8736C104.623 57.8398 104.813 57.7954 104.997 57.7266C106.317 57.23 112.892 58.7908 118.611 60.2252H109.022C109.207 59.8516 109.112 59.614 109.138 58.9753C109.138 58.3759 108.65 57.8882 108.05 57.8882ZM117.373 30.9062C114.458 31.4159 112.34 30.8872 111.567 29.4546C111.1 28.5903 111.25 27.6161 111.659 27.1806C112.127 26.7128 112.909 26.2536 113.211 26.0692C113.322 26.0071 113.383 25.8823 113.363 25.7567L113.073 23.8944C115.754 23.6154 119.079 22.202 121.438 20.8938C121.913 27.1201 121.684 26.1492 121.935 26.583C122.13 26.8848 122.543 27.677 122.177 28.5152C121.698 29.6097 120.037 30.4366 117.373 30.9062ZM112.7 23.3166C111.165 23.4245 109.988 23.1212 109.216 22.4104C104.572 18.1386 108.811 8.45444 109.611 7.13981C110.177 6.20359 111.954 5.47499 112.505 5.32707C112.659 5.56024 112.986 6.0827 113.352 6.66873C114.631 8.71404 117.011 12.5213 118.473 14.3394C120.228 16.5222 123.549 14.2355 124.967 15.3234C125.362 15.6273 125.602 16.1913 125.698 17.0477C125.789 17.857 125.607 18.517 125.156 19.0092C124.124 20.1373 121.961 20.1216 121.717 20.1162C121.653 20.1217 121.592 20.1041 121.5 20.1584C121.451 20.1872 116.579 23.0389 112.7 23.3166ZM95.9815 43.4605C96.2756 41.9561 97.5649 36.7101 101.798 32.3664C104.304 29.7918 107.397 28.0222 110.993 27.0769C110.612 27.7327 110.506 28.7718 111.031 29.7437C112.172 31.8563 115.106 31.9197 117.478 31.5053C120.393 30.9917 122.162 30.0674 122.734 28.7584C123.051 28.0336 122.935 27.3533 122.751 26.8633C136.56 30.1139 141.493 45.7661 142.351 48.9172C142.388 49.0493 142.418 49.1593 142.441 49.2458C139.623 50.7363 134.526 51.0778 131.341 51.1187L129.802 42.895C129.771 42.7298 129.612 42.6229 129.447 42.6517C129.282 42.6826 129.173 42.8415 129.204 43.0067L130.726 51.1412L104.715 52.5619C105.014 50.2609 104.915 48.3044 104.908 48.1842C104.908 47.9788 104.918 41.0856 106.722 38.6948C106.824 38.5605 106.797 38.3698 106.663 38.2688C106.529 38.1667 106.338 38.1943 106.237 38.3282C104.495 40.6363 104.318 46.4784 104.301 47.8906C101.167 47.8706 98.3443 45.6314 95.9595 43.5784L95.9815 43.4605ZM95.3596 47.6126C95.7808 47.7867 95.9769 47.5656 96.1698 47.1528C96.3778 46.6636 96.5653 45.785 96.7047 44.9944C98.9114 46.798 101.463 48.5031 104.311 48.5055C104.329 49.1521 104.338 50.7887 104.095 52.5977L103.235 52.6513C102.232 52.5091 93.3946 51.3204 91.848 53.3431C91.6418 53.6125 91.4558 54.072 91.7402 54.7338C91.9603 55.244 92.1986 55.7019 92.4463 56.1187C92.1124 55.8747 91.7747 55.6204 91.4328 55.352L88.2144 44.0791C92.4334 46.292 94.7212 47.4223 95.3596 47.6126ZM81.7963 30.9142C91.452 64.7188 88.8553 55.6277 89.501 57.8882H57.0729L49.3692 30.9142H81.7963ZM38.6698 53.3965C38.6698 55.3862 37.3069 57.062 35.4749 57.5471V49.2519C37.3069 49.737 38.6698 51.4125 38.6698 53.3965ZM21.5093 59.8322V46.4617C21.5093 46.2433 21.6801 46.0726 21.8985 46.0726L34.4914 46.0723C34.7017 46.0794 34.8663 46.2502 34.8663 46.4617V59.8322C34.8663 60.0455 34.6957 60.2177 34.484 60.2252H21.8852C21.6737 60.2178 21.5093 60.0492 21.5093 59.8322ZM5.95073 63.9317V62.0355C5.95073 61.3726 6.49627 60.8335 7.1669 60.8335C7.10592 60.8335 33.9509 60.8335 149.842 60.8335C150.505 60.8335 151.045 61.3726 151.045 62.0355V63.9317C151.045 64.595 150.505 65.1344 149.842 65.1344H7.1669C6.49627 65.1344 5.95073 64.595 5.95073 63.9317ZM9.49079 68.8412V66.9436C9.49079 66.2827 9.99859 65.7451 10.6226 65.7451H146.386C147.003 65.7451 147.505 66.2827 147.505 66.9436V68.8412C147.505 69.5054 147.003 70.0457 146.386 70.0457C144.167 70.0457 12.9864 70.0457 10.6226 70.0457C9.99859 70.0457 9.49079 69.5054 9.49079 68.8412ZM119.409 92.1517L121.675 84.883C123.041 84.8829 116.746 84.8832 134.982 84.8823C135.589 84.8823 136.083 85.3763 136.083 85.9834V92.1517H119.409ZM91.2247 116.808C90.5801 116.561 89.9012 116.638 89.1994 117.041C89.0241 117.04 88.8494 117.076 88.6739 117.153C88.6586 115.805 88.6492 115.75 88.6479 115.684C89.1638 115.652 89.5216 115.624 89.6294 115.615C90.1014 115.677 90.6396 115.72 91.2113 115.751C91.2114 115.762 91.2097 115.621 91.2247 116.808ZM134.982 84.274H130.62C132.351 83.452 133.591 82.2377 134.302 80.637C135.977 76.8452 134.239 72.104 133.627 70.654H136.397L143.1 92.1517H136.692V85.9834C136.692 85.0409 135.925 84.274 134.982 84.274ZM30.8836 70.654L37.5869 92.1517H13.8964L20.5976 70.654H30.8836ZM50.8747 125.079C50.8637 125.084 50.8465 125.091 50.8465 125.091L48.5021 125.092L39.3438 95.7169C39.304 95.5898 39.1864 95.5033 39.0532 95.5033H12.43C12.2969 95.5033 12.1793 95.5898 12.1394 95.7169L2.97939 125.091L0.604696 125.079L17.5767 70.654H19.9618C12.8197 93.723 13.0632 92.3994 13.2376 92.6361C13.4121 92.8729 11.9353 92.7114 38.0005 92.76C38.2055 92.76 38.3522 92.5611 38.2911 92.3653L31.523 70.654H33.9063L50.8747 125.079ZM89.7904 74.1574C90.5347 72.727 93.5132 71.4069 95.5172 70.654H97.3622C95.0864 71.3801 91.0898 72.978 90.33 74.4384C85.8293 83.0769 87.1989 112.637 87.7565 114.326L87.4921 114.507L87.7868 114.431C87.8023 114.443 87.8242 114.47 87.8599 114.505C88.1925 114.8 89.2598 114.957 89.6715 115.008C89.8382 115.029 89.9568 115.181 89.936 115.347C89.915 115.518 89.7569 115.634 89.5966 115.612C88.7336 115.505 87.3003 115.273 87.1679 114.473C87.1622 114.467 87.1489 114.406 87.1343 114.334C87.0671 113.928 87.0173 113.557 86.97 113C86.3686 106.785 85.5711 82.2551 89.7904 74.1574ZM88.0414 115.719C88.0578 116.4 88.0644 117.016 88.07 117.557C87.2491 118.298 86.4879 119.763 85.7428 120.114C84.8266 120.552 83.2358 118.573 82.682 117.736C82.4193 117.441 82.0989 117.184 82.0379 117.14L82.0173 115.662C83.9489 115.873 86.436 115.803 88.0414 115.719ZM71.0436 124.787C70.8463 124.787 70.6737 124.668 70.6047 124.487C69.0266 120.23 73.5512 122.68 76.2324 120.778C78.0537 119.5 79.9224 115.601 82.1992 118.104C82.7413 118.932 83.6813 120.051 84.5781 120.529C84.8095 120.653 84.8491 120.655 84.9125 120.682C83.3335 121.27 81.2747 120.829 80.1641 121.592C79.4032 122.112 79.287 123.215 79.8385 124.701C79.8498 124.73 79.8619 124.759 79.8756 124.787H71.0436ZM99.5658 117.866C100.171 118.343 100.266 122.48 99.9533 124.401C99.9117 124.625 99.7155 124.787 99.4862 124.787H80.8469C80.6496 124.787 80.477 124.668 80.4081 124.487C78.8303 120.231 83.3489 122.683 86.0364 120.778C87.6597 119.638 89.4223 116.279 91.3795 117.564C91.8835 117.874 92.1114 118.27 92.2616 118.476C92.95 119.424 94.2501 120.901 95.4132 120.769C96.595 120.635 97.4239 118.703 98.3725 117.928C98.8111 117.563 99.1561 117.546 99.5658 117.866ZM97.8721 117.556C97.0587 118.29 96.2927 119.762 95.5462 120.114C94.6138 120.559 93.003 118.519 92.4842 117.736C92.2579 117.481 91.9987 117.253 91.84 117.14C91.8349 116.799 91.824 116.073 91.8203 115.776C93.8709 115.847 96.1131 115.763 97.8383 115.609C97.8595 116.333 97.8669 116.989 97.8721 117.556ZM104.356 84.883H118.015L115.415 93.2222C112.443 93.2222 106.618 93.2222 103.476 93.2222C104.375 84.7927 104.087 87.4431 104.356 84.883ZM114.231 93.8305H115.225L114.231 97.0184V93.8305ZM121.667 121.077V124.27C121.667 124.54 121.475 124.751 121.229 124.751H109.941C109.703 124.751 109.503 124.531 109.503 124.27V123.902L110.528 120.614C112.751 120.614 119.031 120.614 121.229 120.614C121.471 120.614 121.667 120.822 121.667 121.077ZM110.717 120.006L113.622 110.688V120.006H110.717ZM116.945 120.006H114.231V108.736L116.945 100.03V120.006ZM154.015 125.092L144.857 95.7169C144.817 95.5898 144.699 95.5033 144.566 95.5033H117.943C117.81 95.5033 117.692 95.5898 117.652 95.7169L108.493 125.091L106.118 125.079C106.488 123.893 103.211 134.4 123.092 70.6547H125.475L118.705 92.3653C118.644 92.5604 118.79 92.76 118.996 92.76C145.006 92.7115 143.584 92.8731 143.759 92.6361C143.933 92.3994 144.178 93.7268 137.036 70.654H139.419L156.391 125.077C156.311 125.108 156.554 125.081 154.015 125.092Z" fill="#2C328B"/>
<path d="M140.421 70.5978H146.75C147.703 70.5978 148.479 69.7846 148.479 68.7851V66.8874C148.479 66.4247 148.306 66.0066 148.032 65.6865H150.206C151.205 65.6865 152.018 64.8742 152.018 63.8756V61.9794C152.018 60.9811 151.205 60.169 150.206 60.169H142.867C144.009 57.1976 143.916 53.1318 143.549 49.9613C146.241 48.2373 153.646 42.5152 151.241 35.6447C148.369 27.4508 142.771 29.6346 141.407 26.4289C140.038 23.217 141.134 19.0562 136.831 18.1012C132.529 17.1462 128.774 19.5368 128.361 14.1107C127.953 8.67851 126.517 -2.51429 114.565 1.98715C114.565 1.98715 109.472 -1.49234 106.691 5.53967C103.916 12.5717 106.101 14.5487 103.027 18.7156C100.5 22.1375 100.332 27.7691 101.83 31.7868C98.67 34.9877 96.5214 39.3392 95.7485 43.2885L95.6932 43.5844C95.6745 43.6895 95.7123 43.7968 95.7928 43.8671C96.0364 44.0795 96.2836 44.2851 96.5282 44.4884C96.4407 45.016 96.18 46.5132 95.9122 46.9794C95.2501 46.7721 92.704 45.505 88.3482 43.2148L84.7112 30.4758C84.6737 30.3451 84.5543 30.2551 84.4185 30.2551H82.4074C82.4016 30.2548 82.3974 30.2498 82.3914 30.2498H49.3305C49.1289 30.2498 48.9825 30.4431 49.0378 30.6374L56.9119 58.2082V60.169H35.759C35.8933 59.8547 35.8175 59.6815 35.8394 58.5179C38.2379 58.0113 40.0384 55.8855 40.0384 53.3403C40.0384 50.7952 38.2379 48.6749 35.8394 48.1688V46.4055C35.8394 45.864 35.4163 45.4259 34.866 45.4081H22.2631C21.7128 45.4081 21.2653 45.8554 21.2653 46.4055C21.2949 60.4761 21.1936 59.8119 21.3452 60.169H7.53149C6.52539 60.169 5.70678 60.9811 5.70678 61.9794V63.8756C5.70678 64.8742 6.52539 65.6865 7.53149 65.6865H9.69659C9.42011 66.0066 9.24684 66.4247 9.24684 66.8874V68.7851C9.24684 69.7846 10.0274 70.5978 10.9872 70.5978H17.3039L0.385708 124.85C0.301619 125.151 0.47782 125.487 0.750291 125.587C0.930887 125.677 0.885702 125.634 3.34397 125.644C3.60753 125.644 3.84108 125.474 3.92665 125.217L13.0184 96.0555H39.1941L48.2873 125.222C48.3711 125.474 48.6046 125.644 48.8682 125.644C51.8134 125.632 51.1141 125.678 51.4681 125.586C51.7545 125.476 51.912 125.154 51.8241 124.841L34.9083 70.5978H87.887C85.988 71.309 83.1231 72.5788 82.3873 73.9929C77.7747 82.8437 78.9491 112.815 79.5942 114.555C79.7792 115.053 80.6342 115.355 81.7813 115.53C81.7666 115.633 81.7846 116.162 81.7899 116.753C79.5402 115.874 77.699 119.204 76.2464 120.225C74.6073 121.387 72.0085 120.659 70.7257 121.536C69.9644 122.055 69.8482 123.159 70.3997 124.645C70.5602 125.067 70.9559 125.339 71.4082 125.339H81.2115H99.8507C100.376 125.339 100.824 124.965 100.917 124.451L100.918 124.446C101.108 123.283 101.371 118.171 100.307 117.332C99.826 116.955 99.3349 116.876 98.8412 117.091C98.8358 116.607 98.8276 116.071 98.8104 115.493C99.7445 115.392 100.432 115.27 100.668 115.145C100.934 114.999 101.497 114.69 103.772 93.7743H113.987V98.9137L105.902 124.839C105.786 125.202 106.069 125.644 106.514 125.644H108.857C109.121 125.644 109.354 125.474 109.44 125.217L109.528 124.935C109.719 125.159 109.995 125.303 110.305 125.303H121.594C122.181 125.303 122.64 124.825 122.64 124.214V121.02C122.64 120.43 122.171 119.95 121.594 119.95H117.918V98.0217L118.531 96.0555H144.707L153.8 125.222C153.884 125.474 154.118 125.644 154.381 125.644C156.688 125.63 156.758 125.672 156.91 125.61L156.944 125.599C157.263 125.499 157.435 125.159 157.337 124.841L140.421 70.5978ZM142.212 60.169H121.463C104.385 55.8489 106.153 57.0975 104.466 57.2534C101.772 57.5658 98.1025 54.6018 96.8925 56.8961C96.5561 57.5294 96.1508 57.8421 95.6606 57.821C94.6961 57.7821 93.5476 56.4853 92.6637 54.4371C91.5876 51.933 100.868 52.8229 103.574 53.1999C139.228 51.2617 129.053 51.765 133.212 51.7101C136.453 51.6982 140.012 51.2796 142.919 49.8174C142.932 49.9202 142.946 50.0405 142.961 50.1765C143.193 52.1126 143.57 56.9047 142.212 60.169ZM102.627 57.832H96.9795C97.1355 57.6628 97.2876 57.4494 97.4303 57.1807C98.119 55.8737 100.389 57.23 102.711 57.7238C102.684 57.7608 102.656 57.7964 102.627 57.832ZM94.0531 57.6475C94.1197 57.7084 94.1855 57.7781 94.2524 57.832H92.5215L92.0781 56.2789C92.5519 56.6347 93.6851 57.4466 94.0531 57.6475ZM108.415 57.832H104.79L104.791 57.8174C104.987 57.7836 105.178 57.7392 105.361 57.6705C106.682 57.1739 113.256 58.7347 118.976 60.169H109.386C109.572 59.7954 109.477 59.5578 109.503 58.9191C109.503 58.3198 109.015 57.832 108.415 57.832ZM117.738 30.8501C114.822 31.3598 112.705 30.8311 111.931 29.3985C111.464 28.5342 111.615 27.5599 112.024 27.1245C112.492 26.6567 113.273 26.1975 113.575 26.013C113.687 25.951 113.747 25.8262 113.728 25.7006L113.437 23.8382C116.118 23.5593 119.443 22.1459 121.802 20.8377C122.277 27.064 122.049 26.0931 122.299 26.5269C122.494 26.8287 122.907 27.6208 122.541 28.459C122.063 29.5536 120.402 30.3805 117.738 30.8501ZM113.065 23.2605C111.529 23.3683 110.353 23.0651 109.58 22.3543C104.936 18.0825 109.175 8.39831 109.976 7.08368C110.541 6.14746 112.319 5.41886 112.87 5.27094C113.024 5.5041 113.35 6.02657 113.717 6.6126C114.996 8.6579 117.376 12.4652 118.837 14.2832C120.592 16.466 123.914 14.1793 125.331 15.2673C125.727 15.5711 125.966 16.1352 126.062 16.9915C126.153 17.8009 125.971 18.4609 125.521 18.9531C124.489 20.0812 122.325 20.0654 122.081 20.0601C122.017 20.0655 121.957 20.048 121.865 20.1022C121.816 20.1311 116.944 22.9828 113.065 23.2605ZM96.3461 43.4044C96.6402 41.9 97.9295 36.6539 102.162 32.3102C104.668 29.7357 107.762 27.9661 111.358 27.0207C110.977 27.6765 110.871 28.7157 111.396 29.6875C112.537 31.8002 115.471 31.8636 117.843 31.4492C120.758 30.9356 122.527 30.0113 123.099 28.7023C123.415 27.9775 123.3 27.2972 123.115 26.8072C136.925 30.0578 141.858 45.71 142.715 48.861C142.753 48.9932 142.783 49.1032 142.806 49.1896C139.987 50.6802 134.891 51.0216 131.705 51.0625L130.167 42.8389C130.136 42.6737 129.977 42.5668 129.812 42.5956C129.647 42.6265 129.538 42.7854 129.569 42.9505L131.09 51.085L105.08 52.5057C105.378 50.2048 105.279 48.2483 105.273 48.1281C105.272 47.9226 105.282 41.0295 107.087 38.6386C107.188 38.5044 107.161 38.3137 107.027 38.2127C106.893 38.1105 106.703 38.1382 106.601 38.2721C104.859 40.5802 104.683 46.4222 104.666 47.8344C101.531 47.8145 98.7089 45.5753 96.3241 43.5223L96.3461 43.4044ZM95.7242 47.5565C96.1453 47.7306 96.3415 47.5094 96.5344 47.0967C96.7424 46.6075 96.9299 45.7289 97.0693 44.9382C99.276 46.7418 101.828 48.447 104.676 48.4493C104.693 49.0959 104.703 50.7326 104.46 52.5416L103.6 52.5952C102.597 52.4529 93.7592 51.2642 92.2126 53.287C92.0064 53.5564 91.8204 54.0159 92.1048 54.6776C92.3249 55.1878 92.5632 55.6457 92.8109 56.0626C92.477 55.8186 92.1393 55.5643 91.7974 55.2959L88.579 44.023C92.798 46.2359 95.0858 47.3662 95.7242 47.5565ZM82.1609 30.8581C91.8166 64.6627 89.2199 55.5715 89.8656 57.832H57.4375L49.7337 30.8581H82.1609ZM39.0343 53.3403C39.0343 55.33 37.6715 57.0058 35.8394 57.4909V49.1958C37.6715 49.6808 39.0343 51.3564 39.0343 53.3403ZM21.8738 59.7761V46.4055C21.8738 46.1872 22.0447 46.0164 22.2631 46.0164L34.8559 46.0161C35.0663 46.0233 35.2309 46.194 35.2309 46.4055V59.7761C35.2309 59.9894 35.0603 60.1616 34.8486 60.169H22.2498C22.0382 60.1616 21.8738 59.9931 21.8738 59.7761ZM6.31532 63.8756V61.9794C6.31532 61.3164 6.86085 60.7773 7.53149 60.7773C7.4705 60.7773 34.3155 60.7773 150.206 60.7773C150.87 60.7773 151.409 61.3164 151.409 61.9794V63.8756C151.409 64.5388 150.87 65.0782 150.206 65.0782H7.53149C6.86085 65.0782 6.31532 64.5388 6.31532 63.8756ZM9.85537 68.7851V66.8874C9.85537 66.2265 10.3632 65.6889 10.9872 65.6889H146.75C147.368 65.6889 147.87 66.2265 147.87 66.8874V68.7851C147.87 69.4492 147.368 69.9895 146.75 69.9895C144.531 69.9895 13.351 69.9895 10.9872 69.9895C10.3632 69.9895 9.85537 69.4492 9.85537 68.7851ZM119.774 92.0956L122.039 84.8268C123.406 84.8268 117.111 84.8271 135.346 84.8262C135.954 84.8262 136.448 85.3201 136.448 85.9273V92.0956H119.774ZM91.5893 116.752C90.9447 116.505 90.2658 116.581 89.564 116.985C89.3887 116.984 89.2139 117.02 89.0385 117.097C89.0232 115.748 89.0138 115.694 89.0125 115.628C89.5284 115.596 89.8862 115.568 89.994 115.558C90.466 115.621 91.0042 115.664 91.5759 115.695C91.576 115.706 91.5742 115.565 91.5893 116.752ZM135.346 84.2179H130.984C132.716 83.3958 133.956 82.1816 134.666 80.5808C136.342 76.789 134.604 72.0479 133.992 70.5978H136.761L143.464 92.0956H137.056V85.9273C137.056 84.9848 136.289 84.2179 135.346 84.2179ZM31.2482 70.5978L37.9515 92.0956H14.261L20.9622 70.5978H31.2482ZM51.2393 125.023C51.2283 125.028 51.2111 125.035 51.2111 125.035L48.8667 125.036L39.7084 95.6607C39.6686 95.5336 39.5509 95.4472 39.4178 95.4472H12.7946C12.6615 95.4472 12.5438 95.5336 12.504 95.6607L3.34397 125.035L0.969279 125.022L17.9413 70.5978H20.3264C13.1843 93.6669 13.4277 92.3432 13.6022 92.58C13.7767 92.8168 12.2999 92.6553 38.3651 92.7039C38.5701 92.7039 38.7168 92.5049 38.6557 92.3091L31.8876 70.5978H34.2709L51.2393 125.023ZM90.155 74.1012C90.8993 72.6709 93.8778 71.3508 95.8818 70.5978H97.7268C95.451 71.3239 91.4544 72.9219 90.6946 74.3822C86.1939 83.0208 87.5635 112.581 88.1211 114.27L87.8566 114.451L88.1514 114.375C88.1668 114.387 88.1888 114.413 88.2245 114.449C88.5571 114.744 89.6244 114.901 90.0361 114.952C90.2028 114.973 90.3214 115.124 90.3006 115.291C90.2795 115.461 90.1215 115.578 89.9612 115.555C89.0982 115.448 87.6649 115.216 87.5325 114.417C87.5268 114.411 87.5134 114.35 87.4989 114.278C87.4317 113.872 87.3819 113.501 87.3346 112.944C86.7332 106.729 85.9357 82.199 90.155 74.1012ZM88.406 115.663C88.4223 116.344 88.4289 116.96 88.4346 117.501C87.6137 118.242 86.8524 119.707 86.1074 120.058C85.1912 120.496 83.6004 118.516 83.0466 117.68C82.7839 117.384 82.4635 117.128 82.4024 117.084L82.3819 115.606C84.3135 115.817 86.8005 115.747 88.406 115.663ZM71.4082 124.731C71.2109 124.731 71.0382 124.612 70.9693 124.431C69.3912 120.174 73.9158 122.623 76.597 120.722C78.4182 119.444 80.287 115.545 82.5638 118.048C83.1059 118.876 84.0459 119.995 84.9427 120.473C85.174 120.597 85.2137 120.598 85.2771 120.626C83.6981 121.214 81.6393 120.773 80.5287 121.536C79.7677 122.056 79.6516 123.159 80.2031 124.645C80.2143 124.674 80.2265 124.703 80.2402 124.731H71.4082ZM99.9304 117.81C100.535 118.287 100.63 122.424 100.318 124.345C100.276 124.569 100.08 124.731 99.8507 124.731H81.2115C81.0142 124.731 80.8416 124.612 80.7727 124.431C79.1948 120.175 83.7135 122.627 86.401 120.722C88.0243 119.582 89.7869 116.223 91.744 117.508C92.2481 117.818 92.476 118.214 92.6262 118.42C93.3146 119.368 94.6147 120.845 95.7778 120.713C96.9596 120.579 97.7885 118.647 98.7371 117.872C99.1757 117.507 99.5206 117.49 99.9304 117.81ZM98.2367 117.5C97.4233 118.234 96.6573 119.706 95.9108 120.058C94.9783 120.503 93.3676 118.463 92.8488 117.679C92.6225 117.425 92.3633 117.197 92.2046 117.084C92.1995 116.743 92.1886 116.017 92.1848 115.72C94.2355 115.791 96.4776 115.707 98.2028 115.553C98.2241 116.277 98.2315 116.933 98.2367 117.5ZM104.72 84.8268H118.38L115.779 93.166C112.807 93.166 106.982 93.166 103.84 93.166C104.74 84.7366 104.451 87.387 104.72 84.8268ZM114.595 93.7743H115.59L114.595 96.9623V93.7743ZM122.032 121.02V124.214C122.032 124.483 121.839 124.695 121.594 124.695H110.305C110.068 124.695 109.867 124.474 109.867 124.214V123.846L110.892 120.558C113.116 120.558 119.395 120.558 121.594 120.558C121.835 120.558 122.032 120.766 122.032 121.02ZM111.082 119.95L113.987 110.632V119.95H111.082ZM117.31 119.95H114.595V108.68L117.31 99.9736V119.95ZM154.38 125.036L145.221 95.6607C145.182 95.5336 145.064 95.4472 144.931 95.4472H118.308C118.174 95.4472 118.057 95.5336 118.017 95.6607L108.857 125.035L106.482 125.022C106.852 123.837 103.575 134.344 123.457 70.5985H125.839L119.07 92.3091C119.009 92.5042 119.155 92.7039 119.36 92.7039C145.371 92.6554 143.949 92.817 144.123 92.58C144.298 92.3432 144.542 93.6707 137.401 70.5978H139.784L156.755 125.021C156.676 125.052 156.918 125.025 154.38 125.036Z" fill="#2C328B"/>
<path d="M70.1733 47.4946C71.695 47.4946 72.7048 46.1653 72.4346 44.5233C72.1573 42.8813 70.7067 41.5449 69.1849 41.5449C67.6632 41.5449 66.6534 42.8813 66.9236 44.5233C67.201 46.1653 68.6516 47.4946 70.1733 47.4946Z" fill="#2C328B"/>
<path d="M24.7337 44.0212C24.7767 44.0922 24.9967 44.0818 25.327 43.8341C26.2509 43.1353 26.5902 41.4787 25.5012 40.2109C24.7858 39.3729 23.7092 38.7237 23.8027 37.6612C23.829 37.3649 23.9267 37.2037 23.8623 37.1315C23.8199 37.0683 23.5605 37.1089 23.3399 37.5075C23.2377 37.7032 23.1639 37.9796 23.1883 38.3118C23.2999 40.033 25.4781 40.3489 25.3642 42.1573C25.3473 42.7754 25.1319 43.2266 24.9665 43.5058C24.7987 43.7896 24.6825 43.9425 24.7337 44.0212Z" fill="#F5751A"/>
<path d="M31.8244 43.6014C31.8673 43.6724 32.0873 43.6619 32.4176 43.4142C32.7387 43.1714 33.1597 42.6456 33.2715 41.7945C33.4348 39.4392 30.7455 38.9213 30.8933 37.2414C30.9196 36.945 31.0173 36.7837 30.9529 36.7115C30.9105 36.6484 30.6511 36.689 30.4305 37.0876C30.19 37.5479 30.1921 38.2299 30.6749 38.9458C31.4483 39.9856 32.5397 40.3896 32.4549 41.7373C32.4379 42.3554 32.2225 42.8067 32.0571 43.086C31.8893 43.3697 31.7732 43.5226 31.8244 43.6014Z" fill="#F5751A"/>
<path d="M27.6759 40.576C27.7188 40.6469 27.9388 40.6365 28.2692 40.3888C29.193 39.6902 29.5321 38.0334 28.4434 36.7656C27.728 35.9276 26.6515 35.2784 26.7448 34.2159C26.7712 33.9195 26.8689 33.7583 26.8044 33.6862C26.7621 33.623 26.5026 33.6637 26.2821 34.0623C26.0416 34.5224 26.0436 35.2046 26.5264 35.9204C27.2999 36.9602 28.3913 37.3642 28.3064 38.712C28.2895 39.3301 28.074 39.7813 27.9087 40.0606C27.7408 40.3443 27.6247 40.4972 27.6759 40.576Z" fill="#F5751A"/>
</svg>
