<svg width="13" height="18" viewBox="0 0 13 18" fill="none" xmlns="http://www.w3.org/2000/svg">
<path d="M5.0435 0H11.4955C11.8038 0 11.9826 0.347215 11.8038 0.598557L7.67611 6.40275C7.49732 6.65409 7.67611 7.00131 7.98446 7.00131H11.2441C11.4462 7.00131 11.6147 7.16196 11.6224 7.36407L11.6276 7.48586C11.6328 7.58173 11.5991 7.67501 11.5369 7.75015L2.80733 17.866C2.52748 18.1899 2.00925 17.8738 2.1699 17.4774L4.5719 11.5514C4.67296 11.3026 4.49158 11.0332 4.22469 11.0306L1.2034 11.0098C0.939101 11.0098 0.760311 10.7455 0.851001 10.4994L4.68851 0.253936C4.74292 0.10624 4.88544 0.00777316 5.0435 0.00777316V0Z" fill="#9DB2CE"/>
<path d="M1.20175 11.0021L4.22304 11.0228C4.34742 11.0228 4.45365 11.085 4.52102 11.1757L7.71074 6.88211C7.59414 6.75774 7.56305 6.56081 7.67706 6.40275L11.8048 0.598557C11.9836 0.347214 11.8048 0 11.4964 0H5.04444C4.88638 0 4.74387 0.0984672 4.68945 0.246163L0.851943 10.4916C0.758661 10.7378 0.940042 11.0021 1.20434 11.0021H1.20175Z" fill="#9DB2CE"/>
<path d="M5.4185 0H11.8705C12.1788 0 12.3576 0.347215 12.1788 0.598557L8.05111 6.40275C7.87232 6.65409 8.05111 7.00131 8.35946 7.00131H11.6191C11.8212 7.00131 11.9897 7.16196 11.9974 7.36407L12.0026 7.48586C12.0078 7.58173 11.9741 7.67501 11.9119 7.75015L3.18233 17.866C2.90248 18.1899 2.38425 17.8738 2.5449 17.4774L4.9469 11.5514C5.04796 11.3026 4.86658 11.0332 4.59969 11.0306L1.5784 11.0098C1.3141 11.0098 1.13531 10.7455 1.226 10.4994L5.06351 0.253936C5.11792 0.10624 5.26044 0.00777316 5.4185 0.00777316V0Z" fill="#9DB2CE"/>
<path d="M1.57675 11.0021L4.59804 11.0228C4.72242 11.0228 4.82865 11.085 4.89602 11.1757L8.08574 6.88211C7.96914 6.75774 7.93805 6.56081 8.05206 6.40275L12.1798 0.598557C12.3586 0.347214 12.1798 0 11.8714 0H5.41944C5.26138 0 5.11887 0.0984672 5.06445 0.246163L1.22694 10.4916C1.13366 10.7378 1.31504 11.0021 1.57934 11.0021H1.57675Z" fill="#9DB2CE"/>
</svg>
