<svg width="12" height="18" viewBox="0 0 12 18" fill="none" xmlns="http://www.w3.org/2000/svg">
<path d="M4.21635 0H10.6683C10.9767 0 11.1555 0.347215 10.9767 0.598557L6.84896 6.40275C6.67017 6.65409 6.84896 7.00131 7.15731 7.00131H10.417C10.6191 7.00131 10.7875 7.16196 10.7953 7.36407L10.8005 7.48586C10.8057 7.58173 10.772 7.67501 10.7098 7.75015L1.98018 17.866C1.70033 18.1899 1.1821 17.8738 1.34275 17.4774L3.74476 11.5514C3.84581 11.3026 3.66443 11.0332 3.39754 11.0306L0.37625 11.0098C0.111952 11.0098 -0.0668378 10.7455 0.0238527 10.4994L3.86136 0.253936C3.91577 0.10624 4.05829 0.00777316 4.21635 0.00777316V0Z" fill="white"/>
<path d="M0.374602 11.0021L3.39589 11.0228C3.52027 11.0228 3.6265 11.085 3.69387 11.1757L6.88359 6.88211C6.76699 6.75774 6.7359 6.56081 6.84991 6.40275L10.9776 0.598557C11.1564 0.347215 10.9776 0 10.6693 0H4.21729C4.05923 0 3.91672 0.0984672 3.8623 0.246163L0.0247943 10.4916C-0.0684874 10.7378 0.112894 11.0021 0.377192 11.0021H0.374602Z" fill="#F47621"/>
</svg>
