<svg width="25" height="24" viewBox="0 0 25 24" fill="none" xmlns="http://www.w3.org/2000/svg">
<path d="M3.875 4C3.875 3.44772 4.32272 3 4.875 3H10.875C11.4273 3 11.875 3.44772 11.875 4V10C11.875 10.5523 11.4273 11 10.875 11H4.875C4.32272 11 3.875 10.5523 3.875 10V4ZM3.875 14C3.875 13.4477 4.32272 13 4.875 13H10.875C11.4273 13 11.875 13.4477 11.875 14V20C11.875 20.5523 11.4273 21 10.875 21H4.875C4.32272 21 3.875 20.5523 3.875 20V14ZM13.875 4C13.875 3.44772 14.3227 3 14.875 3H20.875C21.4273 3 21.875 3.44772 21.875 4V10C21.875 10.5523 21.4273 11 20.875 11H14.875C14.3227 11 13.875 10.5523 13.875 10V4ZM13.875 14C13.875 13.4477 14.3227 13 14.875 13H20.875C21.4273 13 21.875 13.4477 21.875 14V20C21.875 20.5523 21.4273 21 20.875 21H14.875C14.3227 21 13.875 20.5523 13.875 20V14ZM15.875 5V9H19.875V5H15.875ZM15.875 15V19H19.875V15H15.875ZM5.875 5V9H9.875V5H5.875ZM5.875 15V19H9.875V15H5.875Z" fill="#9DB2CE"/>
</svg>
