<svg width="23" height="22" viewBox="0 0 23 22" fill="none" xmlns="http://www.w3.org/2000/svg">
<path d="M6.35045 5.47011C7.76182 4.34111 9.55207 3.66602 11.5 3.66602C13.4479 3.66602 15.2382 4.34111 16.6496 5.47011L17.9818 4.13784L19.2782 5.4342L17.9459 6.76647C19.0749 8.17784 19.75 9.9681 19.75 11.916C19.75 16.4724 16.0564 20.166 11.5 20.166C6.94365 20.166 3.25 16.4724 3.25 11.916C3.25 9.9681 3.9251 8.17784 5.05409 6.76647L3.72183 5.4342L5.01819 4.13784L6.35045 5.47011ZM11.5 18.3327C15.0438 18.3327 17.9167 15.4598 17.9167 11.916C17.9167 8.37219 15.0438 5.49935 11.5 5.49935C7.95618 5.49935 5.08333 8.37219 5.08333 11.916C5.08333 15.4598 7.95618 18.3327 11.5 18.3327ZM12.4167 10.9993H15.1667L10.5833 16.9577V12.8327H7.83333L12.4167 6.86995V10.9993ZM7.83333 0.916016H15.1667V2.74935H7.83333V0.916016Z" fill="#F5751A"/>
</svg>
