<svg width="428" height="273" viewBox="0 0 428 273" fill="none" xmlns="http://www.w3.org/2000/svg">
<path d="M214 273C307.466 182.91 522.994 223.818 522.994 223.818L522.994 -95.4003C523.236 -133.179 516.452 -170.665 502.995 -205.889C425.356 -405.085 214 -445 214 -445C214 -445 2.64417 -405.085 -74.9903 -205.889C-88.4504 -170.666 -95.2371 -133.18 -94.9936 -95.4002L-94.9936 223.819C-94.9936 223.819 120.553 182.91 214 273Z" fill="url(#paint0_linear_881_12436)" fill-opacity="0.4"/>
<path d="M214 273C307.466 182.91 522.994 223.818 522.994 223.818L522.994 -95.4003C523.236 -133.179 516.452 -170.665 502.995 -205.889C425.356 -405.085 214 -445 214 -445C214 -445 2.64417 -405.085 -74.9903 -205.889C-88.4504 -170.666 -95.2371 -133.18 -94.9936 -95.4002L-94.9936 223.819C-94.9936 223.819 120.553 182.91 214 273Z" fill="white" fill-opacity="0.2"/>
<defs>
<linearGradient id="paint0_linear_881_12436" x1="214" y1="273" x2="214" y2="176.5" gradientUnits="userSpaceOnUse">
<stop stop-color="#4953E5"/>
<stop offset="1" stop-color="#4953E5" stop-opacity="0"/>
</linearGradient>
</defs>
</svg>
