<svg width="11" height="11" viewBox="0 0 11 11" fill="none" xmlns="http://www.w3.org/2000/svg">
<path d="M2.49065 3.01655C2.49065 2.21668 2.80837 1.44928 3.37311 0.883436C3.93833 0.318072 4.70492 0 5.50384 0C6.30331 0 7.06936 0.317581 7.63457 0.883436C8.1998 1.44929 8.51702 2.21674 8.51751 3.01655C8.51751 3.81641 8.1998 4.58381 7.63457 5.14965C7.06984 5.71551 6.30326 6.03309 5.50434 6.03309C4.70536 6.03211 3.93932 5.71402 3.37461 5.14867C2.80939 4.58331 2.49163 3.81635 2.49065 3.01655ZM5.5 6.52726C2.46714 6.52726 0 8.35756 0 10.6067C0 10.7109 0.0412494 10.8107 0.114911 10.8845C0.188572 10.9582 0.288748 11 0.392852 11H10.6071C10.7113 11 10.8114 10.9582 10.8851 10.8845C10.9587 10.8107 11 10.7109 11 10.6067C11 8.35706 8.53286 6.52726 5.5 6.52726Z" fill="#4E4E4E"/>
</svg>
