<svg width="34" height="25" viewBox="0 0 34 25" fill="none" xmlns="http://www.w3.org/2000/svg">
<path d="M2.80589 20.807L0 24.2549V2.37459C0 1.74419 0.245933 1.14123 0.686704 0.695094C1.12748 0.248963 1.72316 1.32567e-05 2.34596 1.32567e-05H9.18889C10.1487 -0.00321986 11.0126 0.585185 11.3703 1.48717L11.9836 3.01633L24.8313 3.10201V3.10362C26.1201 3.11494 27.1597 4.1737 27.1645 5.4782H6.51554C4.39794 5.4782 2.6828 7.21588 2.6828 9.35769V20.2592C2.6828 20.4483 2.72445 20.6357 2.80589 20.807ZM3.52612 9.38044V19.9231L8.69572 13.5819C9.34248 12.7882 10.3071 12.3275 11.3228 12.3275H30.7469V9.37912C30.7469 8.16354 30.5249 7.37957 30.057 6.90915C29.4996 6.345 28.7027 6.345 27.9282 6.34823L6.51599 6.34984C5.7207 6.34661 4.95893 6.66505 4.3968 7.23404C3.83626 7.80303 3.52326 8.5757 3.52645 9.37908L3.52612 9.38044ZM33.7056 14.621L26.2621 23.7505C25.6138 24.5426 24.6508 25.0016 23.6351 25H0.488628L9.33439 14.1291C9.81987 13.5343 10.5433 13.1884 11.3066 13.19H33.8464C33.8592 13.2062 33.8688 13.2223 33.8768 13.2417C34.0892 13.696 34.0237 14.2326 33.7059 14.6205L33.7056 14.621ZM24.1444 21.0868H24.146C24.146 20.972 24.1013 20.8621 24.0215 20.7813C23.9416 20.7004 23.833 20.6552 23.7196 20.6552H7.29792C7.06316 20.6552 6.87311 20.8492 6.87311 21.0868C6.87311 21.3244 7.06315 21.5184 7.29792 21.5184H23.7196C23.8346 21.5184 23.9448 21.4715 24.0246 21.3875C24.1061 21.3034 24.1492 21.1903 24.146 21.0739L24.1444 21.0868ZM25.8484 18.7639C25.8484 18.6492 25.8037 18.5392 25.7238 18.4584C25.644 18.3776 25.5354 18.3323 25.4236 18.3323H9.42831C9.19196 18.3323 9.0019 18.5247 9.0019 18.7639C9.0019 19.0016 9.19194 19.1939 9.42831 19.1939H25.4236C25.5386 19.1939 25.6488 19.1471 25.7286 19.063C25.8085 18.9806 25.8516 18.8674 25.8484 18.751L25.8484 18.7639ZM27.126 16.4411V16.4395C27.126 16.3263 27.0813 16.2164 27.0014 16.1356C26.9216 16.0547 26.813 16.0095 26.7012 16.0095H11.1307C10.8959 16.0095 10.7058 16.2018 10.7058 16.4395C10.7058 16.6787 10.8959 16.8711 11.1307 16.8711H26.7012C26.8162 16.8711 26.9264 16.8242 27.0062 16.7401C27.0861 16.6561 27.1292 16.5429 27.126 16.4265L27.126 16.4411Z" fill="#F47621"/>
</svg>
